<svg xmlns="http://www.w3.org/2000/svg" viewBox="0 0 500 500"><g id="freepik--background-complete--inject-59"><rect x="40.9" y="47.3" width="85.5" height="141.4" style="fill: #e0e0e0"></rect><rect x="38.1" y="47.3" width="85.5" height="141.4" style="fill: #ebebeb"></rect><rect x="41.7" y="50.1" width="78.2" height="135.7" style="fill: #ffffff"></rect><rect x="56.6" y="67.8" width="48.1" height="100.5" style="fill: #ebebeb"></rect><path d="M 56.6 132.7 c -0.1 -9.4 8.3 -18.5 17.6 -19.9 c 4.4 -0.6 9.1 0.3 13.3 -1.4 c 7.4 -3 9.7 -12.8 17.2 -15.8 l 0.3 72.6 H 56.6 Z" style="fill: #e0e0e0"></path><polygon points="464.7,54.4 464.7,122.3 367.3,122.3 363.7,54.9 464.7,54.4" style="fill: #e0e0e0"></polygon><rect x="378.9" y="39.8" width="67.2" height="97.4" transform="translate(323.9,501) rotate(-90)" style="fill: #ffffff"></rect><path d="M 461.6 122.6 H 363.3 V 54.5 h 98.3 Z m -97.4 -0.9 H 460.7 V 55.4 H 364.2 Z" style="fill: #e0e0e0"></path><rect x="374.3" y="63.3" width="76.3" height="50.5" style="fill: #ffffff"></rect><path d="M 450.6 63.3 l -0.4 0 h -1.1 l -4.2 0 l -15.7 0.1 l -54.9 0.1 l 0.2 -0.2 c 0 15.4 0 32.5 0 50.5 h 0 l -0.2 -0.2 l 76.3 0 l -0.2 0.2 c 0 -15.4 0.1 -28 0.1 -36.8 c 0 -4.4 0 -7.8 0.1 -10.2 c 0 -1.2 0 -2 0 -2.7 s 0 -0.9 0 -0.9 s 0 0.3 0 0.9 s 0 1.5 0 2.6 c 0 2.3 0 5.8 0.1 10.1 c 0 8.8 0.1 21.4 0.1 36.9 v 0.2 h -0.2 l -76.3 0 h -0.2 v -0.3 h 0 c 0 -18 0 -35.1 0 -50.5 V 63 h 0.2 l 55.1 0.1 l 15.7 0.1 l 4.2 0 h 1.4 Z" style="fill: #e0e0e0"></path><path d="M 363.7 54.7 a 8.6 8.6 0 0 1 1.7 1.1 c 1 0.7 2.4 1.7 3.8 2.9 S 372 61 372.9 61.8 a 7.4 7.4 0 0 1 1.4 1.4 a 67.2 67.2 0 0 1 -5.3 -4.2 A 54.8 54.8 0 0 1 363.7 54.7 Z" style="fill: #e0e0e0"></path><path d="M 461.2 54.9 A 45.7 45.7 0 0 1 456 59.3 a 46.4 46.4 0 0 1 -5.4 4 a 48.4 48.4 0 0 1 5.1 -4.4 A 47.7 47.7 0 0 1 461.2 54.9 Z" style="fill: #e0e0e0"></path><path d="M 461.1 122.1 l -10.9 -8.8" style="fill: #ffffff"></path><path d="M 450.2 113.3 a 51.1 51.1 0 0 1 5.6 4.2 a 52.4 52.4 0 0 1 5.3 4.6 a 48.7 48.7 0 0 1 -5.6 -4.2 A 53 53 0 0 1 450.2 113.3 Z" style="fill: #e0e0e0"></path><path d="M 363.7 122.1 a 47.4 47.4 0 0 1 5.1 -4.3 a 44.5 44.5 0 0 1 5.4 -3.9 a 47.4 47.4 0 0 1 -5.1 4.3 A 44.5 44.5 0 0 1 363.7 122.1 Z" style="fill: #e0e0e0"></path><rect x="405.3" y="63.5" width="16.9" height="48" transform="translate(326.3,501.3) rotate(-90)" style="fill: #e0e0e0"></rect><path d="M 384.6 341.4 a 35.4 35.4 0 0 0 -15.1 -5.2 c -2.5 -0.3 -5.2 -0.2 -7.2 1.3 a 1.5 1.5 0 0 0 -0.7 1.3 a 1.6 1.6 0 0 0 0.7 0.9 c 6.2 4.7 15.5 5.3 22.3 1.7" style="fill: #e0e0e0"></path><path d="M 384.2 340.9 a 73.4 73.4 0 0 1 -9.8 -8.6 A 24.8 24.8 0 0 1 368.3 321 a 4.6 4.6 0 0 1 0.5 -3.8 c 7.8 6.1 13.9 14 15.4 23.7" style="fill: #e0e0e0"></path><path d="M 384.5 341.3 a 35.2 35.2 0 0 1 0.2 -12.8 a 17.3 17.3 0 0 1 6.8 -10.6 c 1.4 3.1 0.8 6.8 -0.2 10.1 a 48.5 48.5 0 0 1 -6.8 14.3" style="fill: #e0e0e0"></path><path d="M 392.1 355 c -4.6 0.6 -8.7 3 -12.1 6.1 A 22.9 22.9 0 0 0 373.1 373 c 4.5 -0.3 8.4 -3.5 11.2 -7.1 s 4.7 -7.5 7.8 -10.9" style="fill: #e0e0e0"></path><path d="M 393.8 357.2 a 29.9 29.9 0 0 1 3.5 -28.3 c 2.6 9.4 1.7 20 -3.5 28.3" style="fill: #e0e0e0"></path><path d="M 403.9 369.2 a 21.6 21.6 0 0 0 -20.7 11.9 a 1.6 1.6 0 0 0 -0.1 1.6 a 1.5 1.5 0 0 0 1.4 0.4 c 4.1 -0.3 7.7 -2.7 10.7 -5.5 s 5.6 -6 8.9 -8.4" style="fill: #e0e0e0"></path><path d="M 403.6 368.5 a 38.5 38.5 0 0 1 -0.4 -21.5 c 0.8 -2.8 2 -5.7 4.6 -7 a 0.9 0.9 0 0 1 0.7 -0.1 a 0.9 0.9 0 0 1 0.4 0.5 a 13 13 0 0 1 1.1 6.2 a 39 39 0 0 1 -1 6.3 c -0.8 3.8 -1.2 7.9 -3.3 11.2 a 22.6 22.6 0 0 0 -1.3 2.5 c -0.4 0.8 -0.4 1.1 -0.8 1.8" style="fill: #e0e0e0"></path><path d="M 430.3 372.5 c -2 -7.5 0.1 -16.6 4.9 -22.8 c 0.3 -0.5 0.8 -0.9 1.4 -0.9 c 0.9 0.1 1.1 1.3 1.1 2.1 a 41.2 41.2 0 0 1 -7.3 21.6" style="fill: #e0e0e0"></path><path d="M 432.7 374.1 c 9.2 2.4 19.6 0.1 27.2 -5.5 a 22 22 0 0 0 -14.8 -1.8 c -4.9 1.1 -9.4 3.3 -12.5 7.3" style="fill: #e0e0e0"></path><path d="M 434.7 369.1 c 5.1 -8.3 14.9 -13.8 24.7 -14.3 c -1.1 4 -4.4 7.1 -8.1 8.9 s -7.8 2.7 -11.9 3.5 c -1.6 0.3 -3.7 0.7 -4.8 1.9" style="fill: #e0e0e0"></path><path d="M 430.8 344.8 A 71.5 71.5 0 0 0 434 330.3 c 0.4 -4.9 -0.3 -10.1 -2.9 -14.3 c -4.8 9.3 -5.3 20.1 -0.4 29.3" style="fill: #e0e0e0"></path><path d="M 446.9 336.7 c 5.6 -10.2 17 -18.3 28.6 -19.4 c -4.5 11.1 -16.6 19.7 -28.6 19.4" style="fill: #e0e0e0"></path><path d="M 443.4 338.7 c 8.3 1.3 15.4 6.6 23.3 9.8 a 10.4 10.4 0 0 0 5.3 1 a 4.1 4.1 0 0 0 2.6 -7.3 a 11.2 11.2 0 0 0 -3.8 -2.3 c -8.5 -3.5 -17.6 -3.6 -26.5 -1.5" style="fill: #e0e0e0"></path><path d="M 438.6 344.5 c 1.9 0.5 2.5 1.5 4 2.8 a 43.5 43.5 0 0 0 17.6 9.1 c 0.7 0.2 1.6 0.2 1.9 -0.4 s -0.1 -1.2 -0.5 -1.6 A 24.3 24.3 0 0 0 451 347.1 c -4.1 -1.5 -7.6 -3.3 -12.4 -3" style="fill: #e0e0e0"></path><path d="M 433.1 309.2 a 33.4 33.4 0 0 0 25.6 8.7 a 1.7 1.7 0 0 0 1.2 -0.4 c 0.7 -0.7 -0.1 -1.8 -0.9 -2.4 c -7.5 -5.9 -16.6 -8.3 -25.9 -5.9" style="fill: #e0e0e0"></path><path d="M 439.6 306.8 a 35.7 35.7 0 0 1 31.9 -5.3 a 25.3 25.3 0 0 1 -15.2 6.7 a 48.3 48.3 0 0 1 -16.7 -1.4" style="fill: #e0e0e0"></path><path d="M 437 290.6 c -0.7 -7.5 -0.3 -13.4 -0.8 -21 c 0 -0.6 -0.2 -1.3 -0.7 -1.6 c -0.8 -0.3 -1.4 0.7 -1.7 1.5 a 24 24 0 0 0 3.2 20.9" style="fill: #e0e0e0"></path><path d="M 436.4 291.4 a 44.2 44.2 0 0 0 12.4 -12.1 c 2.5 -3.4 4.5 -7.4 4 -11.5 a 11.9 11.9 0 0 0 -9 4.5 a 25 25 0 0 0 -4.6 9.2 c -1 3.3 -1.7 6.7 -2.9 9.9" style="fill: #e0e0e0"></path><path d="M 448.7 288 a 100.4 100.4 0 0 0 30.6 -18 c -3.7 -1.5 -7.8 -0.6 -11.5 0.9 c -8.3 3.4 -15.2 9.1 -19.3 17.1" style="fill: #e0e0e0"></path><path d="M 439.9 295.5 c 5.7 0.6 11.4 1 17 0.1 s 10.7 -3.1 15.9 -5.3 a 1.9 1.9 0 0 0 1.1 -0.8 a 1.2 1.2 0 0 0 -0.4 -1.4 a 3.3 3.3 0 0 0 -1.4 -0.6 c -5.6 -1.6 -11.6 -0.8 -17.1 1 a 79.1 79.1 0 0 0 -15.1 7" style="fill: #e0e0e0"></path><path d="M 407.6 309.4 c -3.9 -7.8 -3.6 -16.9 -0.3 -24.9 c 2.3 3.6 2.6 8.1 2.2 12.4 s -1.7 8.6 -1.8 12.9" style="fill: #e0e0e0"></path><path d="M 392.2 301.7 a 34.6 34.6 0 0 0 -25.8 11 c 4.8 0.8 9.8 -0.5 14.1 -2.6 a 71.3 71.3 0 0 0 12.1 -8.1" style="fill: #e0e0e0"></path><path d="M 381.9 298.2 c -4.7 -0.4 -9.2 -1 -13.8 0.4 a 16.5 16.5 0 0 0 -10.5 8.9 a 24.8 24.8 0 0 0 12.9 -2.4 a 73 73 0 0 0 11.3 -6.9" style="fill: #e0e0e0"></path><path d="M 397.2 298.4 c -4.2 -2.8 -8.6 -5.6 -13.5 -6.8 s -10.6 -0.3 -14.1 3.4 c 4 2.3 8.8 2.6 13.5 2.6 s 10.3 0 14.7 1.5" style="fill: #e0e0e0"></path><path d="M 397.2 298.6 c -7.2 -7.1 -10 -19.9 -7.1 -29.6 a 45.1 45.1 0 0 1 7.1 29.6" style="fill: #e0e0e0"></path><path d="M 417.1 278.4 c 1.4 -3.2 2.3 -6.5 3.5 -9.7 a 27.9 27.9 0 0 1 5.1 -9 a 13.3 13.3 0 0 1 9 -4.6 a 36.1 36.1 0 0 1 -17.4 23.4" style="fill: #e0e0e0"></path><path d="M 413.5 282.6 c -2.3 -3.1 -4.9 -7.3 -7.9 -9.7 s -7 -3.7 -10.8 -2.8 a 25.1 25.1 0 0 0 18.7 12.5" style="fill: #e0e0e0"></path><path d="M 414.3 278.7 a 53.7 53.7 0 0 1 -3.6 -11.6 a 18.1 18.1 0 0 1 1.8 -11.8 c 4 7.5 5.3 15.6 2 23.4" style="fill: #e0e0e0"></path><path d="M 417.2 255.4 c 2.3 -7.5 9.1 -12.9 16.4 -15.4 a 6.2 6.2 0 0 1 2.9 -0.4 a 2.5 2.5 0 0 1 2.1 1.8 c 0.3 1.3 -0.8 2.4 -1.8 3.3 a 56.1 56.1 0 0 1 -19.7 10.9" style="fill: #e0e0e0"></path><path d="M 417.3 249.3 c 0.3 -4.8 0.6 -9.7 2.1 -14.2 s 4.6 -8.8 8.9 -10.8 c 0.8 4.8 -1.4 9.7 -4 13.8 s -5.7 8.1 -7.2 12.8" style="fill: #e0e0e0"></path><path d="M 417.1 252.6 c -1.9 -5.4 -2.1 -12.3 -5.3 -17 c -2.3 -3.3 -5.9 -5.6 -7.9 -9.1 a 13.8 13.8 0 0 0 0.5 10.3 a 29.8 29.8 0 0 0 6 8.6 c 2.4 2.6 4.5 4.5 6.7 7.2" style="fill: #e0e0e0"></path><path d="M 417.2 412.4 c -0.1 0 -0.3 -36.2 -0.3 -80.8 s 0.1 -80.9 0.3 -80.9 s 0.3 36.2 0.3 80.9 S 417.3 412.4 417.2 412.4 Z" style="fill: #e0e0e0"></path><path d="M 448.8 304 a 9.1 9.1 0 0 1 -1.4 0.5 l -3.8 1.3 c -3.2 1.1 -7.5 2.6 -12.2 4.6 s -9.1 3.6 -11.6 5.8 a 8.5 8.5 0 0 0 -2.3 3.1 c -0.4 0.8 -0.4 1.4 -0.5 1.4 s 0 -0.1 0 -0.4 a 5.8 5.8 0 0 1 0.3 -1.1 a 8.1 8.1 0 0 1 2.3 -3.3 a 20.2 20.2 0 0 1 5 -3.1 c 2 -0.9 4.2 -1.9 6.6 -2.9 c 4.7 -1.9 9.1 -3.4 12.3 -4.4 c 1.6 -0.5 2.9 -0.9 3.8 -1.1 A 7.4 7.4 0 0 1 448.8 304 Z" style="fill: #e0e0e0"></path><path d="M 459.2 278.5 a 2.5 2.5 0 0 1 -0.4 0.4 L 457.6 280 l -4.3 3.9 L 438.9 296.8 c -5.6 5 -10.5 9.8 -13.9 13.4 c -1.7 1.8 -3 3.3 -3.9 4.3 c -0.4 0.5 -0.8 0.9 -1.1 1.2 s -0.4 0.4 -0.4 0.4 s 0.1 -0.2 0.3 -0.5 s 0.5 -0.7 1 -1.3 c 0.9 -1.1 2.1 -2.6 3.8 -4.5 a 183 183 0 0 1 13.8 -13.6 c 5.7 -5 10.8 -9.5 14.5 -12.7 l 4.5 -3.8 l 1.2 -1 C 459 278.6 459.2 278.5 459.2 278.5 Z" style="fill: #e0e0e0"></path><path d="M 432.8 301.9 c -0.1 -0.1 1 -2.8 2.2 -6.2 s 1.8 -6.3 1.9 -6.3 a 21.5 21.5 0 0 1 -1.4 6.5 a 42.2 42.2 0 0 1 -1.8 4.3 A 7 7 0 0 1 432.8 301.9 Z" style="fill: #e0e0e0"></path><path d="M 417.2 323.8 a 6.4 6.4 0 0 1 -0.9 -1 L 414.1 320 c -1.9 -2.4 -4.5 -5.8 -7.3 -9.4 s -5.6 -6.9 -7.5 -9.3 L 397 298.4 a 7 7 0 0 1 -0.8 -1.1 a 7 7 0 0 1 0.9 0.9 c 0.6 0.6 1.4 1.6 2.4 2.7 c 2 2.3 4.7 5.5 7.6 9.2 s 5.4 7 7.2 9.5 c 0.9 1.2 1.6 2.2 2.1 3 A 8.2 8.2 0 0 1 417.2 323.8 Z" style="fill: #e0e0e0"></path><path d="M 410.3 314.9 a 12.7 12.7 0 0 1 -2.9 -5.4 a 15.8 15.8 0 0 1 -0.7 -5.5 l 0.2 0 c -0.1 0.4 -0.2 0.6 -0.2 0.6 s 0 -0.2 0 -0.7 l 0.2 0 a 24.9 24.9 0 0 0 0.9 5.3 A 40.4 40.4 0 0 0 410.3 314.9 Z" style="fill: #e0e0e0"></path><path d="M 401.3 303.6 a 8.9 8.9 0 0 0 -2 -1.2 a 13.5 13.5 0 0 0 -5.6 -0.5 a 34.4 34.4 0 0 0 -5.7 0.9 a 18.6 18.6 0 0 1 -2.3 0.6 a 7.8 7.8 0 0 1 2.2 -0.9 a 25.9 25.9 0 0 1 5.7 -1.1 a 12.2 12.2 0 0 1 5.8 0.6 A 3.5 3.5 0 0 1 401.3 303.6 Z" style="fill: #e0e0e0"></path><path d="M 399.2 300.9 c 0 0.1 -1.2 -0.5 -3.1 -1.1 a 31.6 31.6 0 0 0 -7.8 -1.6 a 32.2 32.2 0 0 0 -7.9 0.4 c -2 0.4 -3.2 0.7 -3.3 0.7 a 2.6 2.6 0 0 1 0.8 -0.3 a 20.1 20.1 0 0 1 2.3 -0.7 a 27.7 27.7 0 0 1 15.9 1.2 a 19.8 19.8 0 0 1 2.2 1 A 2.9 2.9 0 0 1 399.2 300.9 Z" style="fill: #e0e0e0"></path><path d="M 417.1 289.4 a 63.4 63.4 0 0 1 -2.3 -7.9 a 64.8 64.8 0 0 1 -1.8 -8 a 66 66 0 0 1 2.3 7.9 A 64.9 64.9 0 0 1 417.1 289.4 Z" style="fill: #e0e0e0"></path><path d="M 417.3 289.4 a 39.3 39.3 0 0 0 -2.5 -4.7 a 20.9 20.9 0 0 0 -3.7 -3.8 a 3.5 3.5 0 0 1 1.4 0.7 a 11.8 11.8 0 0 1 2.7 2.8 A 10.4 10.4 0 0 1 417.3 289.4 Z" style="fill: #e0e0e0"></path><path d="M 417.2 393.1 c -0.1 0 -0.2 -0.9 -0.6 -2.4 a 34 34 0 0 0 -2.4 -6.3 c -2.5 -5.1 -7 -11.6 -12.8 -18.1 c -2.9 -3.3 -5.7 -6.4 -8 -9.3 a 64.6 64.6 0 0 1 -5.7 -8.3 a 38.9 38.9 0 0 1 -2.9 -6.1 c -0.3 -0.8 -0.5 -1.3 -0.6 -1.8 a 2.5 2.5 0 0 1 -0.1 -0.6 c 0.1 0 0.3 0.8 0.9 2.3 a 43.3 43.3 0 0 0 3 6 a 67 67 0 0 0 5.8 8.1 c 2.4 2.9 5.2 6 8 9.3 c 5.8 6.5 10.3 13.1 12.8 18.3 a 31.6 31.6 0 0 1 2.3 6.4 a 16.8 16.8 0 0 1 0.3 1.8 A 2.8 2.8 0 0 1 417.2 393.1 Z" style="fill: #e0e0e0"></path><path d="M 445.8 360.8 a 11.7 11.7 0 0 1 -1.5 0.8 a 32.4 32.4 0 0 0 -3.9 2.6 a 44.8 44.8 0 0 0 -5.1 4.7 c -1.8 1.9 -3.6 4.1 -5.5 6.4 c -3.8 4.7 -7.3 8.9 -9.4 12.2 c -1.1 1.7 -1.9 3.1 -2.4 4 a 12.5 12.5 0 0 1 -0.8 1.5 a 1.7 1.7 0 0 1 0.1 -0.4 c 0.1 -0.3 0.3 -0.7 0.5 -1.2 a 40.4 40.4 0 0 1 2.2 -4.1 c 2 -3.4 5.5 -7.7 9.3 -12.4 c 1.9 -2.4 3.8 -4.6 5.6 -6.5 a 42.4 42.4 0 0 1 5.2 -4.6 a 26.9 26.9 0 0 1 4 -2.5 c 0.5 -0.3 0.9 -0.4 1.2 -0.5 A 1.5 1.5 0 0 1 445.8 360.8 Z" style="fill: #e0e0e0"></path><path d="M 446.3 371.3 a 23.5 23.5 0 0 1 -3.2 0.5 a 41.8 41.8 0 0 0 -7.5 1.5 a 22.5 22.5 0 0 0 -6.7 3.5 c -1.6 1.2 -2.3 2.2 -2.4 2.1 a 2.6 2.6 0 0 1 0.5 -0.7 a 11.9 11.9 0 0 1 1.6 -1.7 a 20.4 20.4 0 0 1 6.8 -3.7 a 34.1 34.1 0 0 1 7.6 -1.4 A 17.4 17.4 0 0 1 446.3 371.3 Z" style="fill: #e0e0e0"></path><path d="M 427.5 377.8 c -0.2 -0.1 1.3 -2.3 2.4 -5.2 s 1.3 -5.5 1.5 -5.5 a 5.3 5.3 0 0 1 -0.1 1.7 a 18 18 0 0 1 -0.9 4 a 18.9 18.9 0 0 1 -1.8 3.7 A 5.3 5.3 0 0 1 427.5 377.8 Z" style="fill: #e0e0e0"></path><path d="M 455 332.7 a 2.1 2.1 0 0 1 -0.5 0.3 l -1.5 0.7 c -0.7 0.3 -1.4 0.6 -2.3 1.1 s -1.9 0.9 -3 1.6 l -1.7 1 c -0.6 0.3 -1.2 0.8 -1.8 1.1 c -1.3 0.8 -2.5 1.7 -3.9 2.7 a 67.4 67.4 0 0 0 -15.1 15.6 c -0.9 1.4 -1.8 2.7 -2.6 4 c -0.4 0.7 -0.8 1.3 -1.1 1.9 l -0.9 1.8 c -0.6 1.1 -1.1 2.2 -1.5 3.1 s -0.8 1.7 -1 2.4 s -0.5 1.1 -0.6 1.5 a 1.9 1.9 0 0 1 -0.3 0.5 a 2.9 2.9 0 0 1 0.2 -0.6 c 0.1 -0.4 0.3 -0.9 0.5 -1.6 s 0.5 -1.5 0.9 -2.4 s 0.8 -2 1.4 -3.1 l 0.9 -1.8 c 0.3 -0.6 0.7 -1.2 1.1 -1.9 c 0.7 -1.3 1.6 -2.6 2.5 -4 a 64.3 64.3 0 0 1 15.2 -15.7 c 1.4 -1 2.7 -1.9 4 -2.7 c 0.6 -0.4 1.2 -0.8 1.9 -1.1 l 1.8 -1 c 1.1 -0.6 2.2 -1.1 3.1 -1.5 s 1.7 -0.8 2.4 -1 l 1.5 -0.6 A 2.1 2.1 0 0 1 455 332.7 Z" style="fill: #e0e0e0"></path><path d="M 432.4 347.9 a 3.7 3.7 0 0 1 1.3 -1.9 a 7.8 7.8 0 0 1 5 -1.9 a 14 14 0 0 1 5.3 1 a 7.4 7.4 0 0 1 2 1 a 12.3 12.3 0 0 1 -2.1 -0.6 a 15.9 15.9 0 0 0 -5.1 -0.8 a 8.1 8.1 0 0 0 -4.8 1.7 A 15 15 0 0 0 432.4 347.9 Z" style="fill: #e0e0e0"></path><path d="M 429 351.4 a 19 19 0 0 0 1.4 -4.6 a 19.2 19.2 0 0 0 -0.3 -4.8 a 3.2 3.2 0 0 1 0.6 1.4 a 9.6 9.6 0 0 1 -0.8 6.9 C 429.5 351 429.1 351.4 429 351.4 Z" style="fill: #e0e0e0"></path><path d="M 392.2 398.3 c 0.8 13.8 5 27.9 11.4 42.1 h 27.9 c 6.1 -14.1 10 -28.1 10.7 -42.1 Z" style="fill: #e0e0e0"></path><path d="M 437.6 420.7 c 0 0.1 -9.2 0.3 -20.5 0.3 s -20.5 -0.1 -20.5 -0.3 s 9.2 -0.3 20.5 -0.3 S 437.6 420.6 437.6 420.7 Z" style="fill: #fafafa"></path><path d="M 437 425.7 c 0 0.1 -8.6 0.3 -19.2 0.3 s -19.2 -0.1 -19.2 -0.3 s 8.6 -0.3 19.2 -0.3 S 437 425.6 437 425.7 Z" style="fill: #fafafa"></path><path d="M 404 407.4 a 79.5 79.5 0 0 1 0 12.8 a 79.5 79.5 0 0 1 0 -12.8 Z" style="fill: #fafafa"></path><path d="M 418.9 407.4 a 85.3 85.3 0 0 1 0 13.3 a 85.3 85.3 0 0 1 0 -13.3 Z" style="fill: #fafafa"></path><path d="M 433 407.3 a 88.7 88.7 0 0 1 0 13.6 a 88.7 88.7 0 0 1 0 -13.6 Z" style="fill: #fafafa"></path><path d="M 441.2 407.4 c 0 0.1 -10.8 0.3 -24.1 0.3 s -24.1 -0.1 -24.1 -0.3 s 10.8 -0.3 24.1 -0.3 S 441.2 407.3 441.2 407.4 Z" style="fill: #fafafa"></path></g><g id="freepik--Floor--inject-59"><path d="M 465.7 446 c 0 0.1 -96.8 0.3 -216.3 0.3 s -216.3 -0.1 -216.3 -0.3 s 96.8 -0.3 216.3 -0.3 S 465.7 445.9 465.7 446 Z" style="fill: #263238"></path></g><g id="freepik--Screen--inject-59"><path d="M 314.1 42 l -28.7 0 C 283.5 42 281.7 42.8 280.4 44.2 C 279.1 45.6 278.4 47.4 278.4 49.3 v 5.2 C 278.5 56.4 277.8 58.3 276.5 59.6 C 275.1 61 273.3 61.8 271.4 61.9 l -56 0 C 213.5 61.8 211.7 61 210.4 59.6 C 209.1 58.3 208.4 56.4 208.4 54.5 V 49.3 C 208.5 47.4 207.8 45.5 206.5 44.2 C 205.1 42.8 203.3 42 201.4 42 H 191.5 l -25.1 0 C 160.4 42 154.6 44.3 150.4 48.6 C 146.1 52.9 143.8 58.6 143.8 64.6 l -0.1 363.6 C 143.7 440.7 153.8 450.9 166.3 450.9 l 147.8 0.1 C 320.1 451 325.8 448.6 330 444.4 C 334.3 440.1 336.7 434.3 336.7 428.3 l 0.1 -363.6 C 336.7 58.7 334.4 52.9 330.1 48.7 C 325.9 44.4 320.1 42 314.1 42 Z" style="fill: #ffffff"></path><path d="M 314.1 42 s 0.3 0 0.8 0 C 315.7 42 316.5 42.1 317.2 42.2 C 320.2 42.6 323.1 43.6 325.7 45.2 C 327.6 46.3 329.4 47.7 330.9 49.4 C 332.7 51.4 334.1 53.7 335.1 56.2 C 336.3 59.1 336.9 62.2 336.8 65.3 c 0 3.3 0 6.9 0 10.7 c 0 30.2 0 73.8 0.1 127.8 s 0 118.2 0 189.5 v 33.9 c 0 1.1 -0.1 2.3 -0.1 3.5 C 336.6 431.9 336.4 433 336.1 434.1 C 334.9 438.7 332.3 442.8 328.7 445.9 C 326.9 447.4 324.9 448.6 322.7 449.5 C 320.5 450.4 318.2 451 315.8 451.2 l -1.8 0.1 H 272.7 l -59.2 0 l -30.3 0 H 168 C 162.8 451.5 157.6 450.1 153.3 447.1 C 149 444.1 145.9 439.8 144.4 434.7 C 143.7 432.3 143.4 429.7 143.5 427.1 v -7.6 q 0 -15.3 0 -30.3 q 0 -30.1 0 -59.2 c 0 -38.8 0 -76.3 0 -111.9 s 0 -69.6 0 -101.3 q 0 -23.8 0 -45.9 V 65.3 c 0 -0.9 0.1 -1.8 0.1 -2.7 s 0.3 -1.8 0.4 -2.7 C 144.7 56.3 146.3 53 148.6 50.2 C 153.1 44.7 159.9 41.5 167 41.8 l 19.7 0 h 14.2 C 204.1 41.5 207.1 43.4 208.2 46.4 C 208.5 47.1 208.7 47.9 208.7 48.6 c 0.1 0.8 0 1.5 0 2.2 c 0 1.5 0 3 0 4.4 C 208.9 56.6 209.4 58 210.3 59.1 C 211.2 60.2 212.4 61 213.7 61.4 C 215.1 61.6 216.5 61.7 217.8 61.6 h 8.2 l 29.9 0 l 13.2 0 c 1 0 2.1 0 3.1 0 C 273.1 61.5 274.1 61.2 274.9 60.6 C 276.6 59.6 277.7 58 278.1 56.1 C 278.3 55.2 278.4 54.3 278.3 53.3 V 50.7 C 278.3 49.9 278.3 49 278.4 48.1 C 278.6 47.2 278.8 46.4 279.3 45.7 C 280 44.2 281.3 43.1 282.8 42.4 C 284.3 42 285.8 41.8 287.3 41.9 L 302 42 l 9 0 l 3.1 0 s -1 0 -3.1 0 l -9 0 l -14.7 0 C 285.8 41.9 284.3 42 282.9 42.5 C 281.4 43.1 280.2 44.3 279.4 45.7 C 279 46.4 278.8 47.2 278.6 48.1 C 278.5 48.9 278.5 49.8 278.5 50.7 v 2.7 C 278.6 54.3 278.5 55.2 278.3 56.2 C 277.9 58.1 276.7 59.8 275 60.8 C 274.2 61.4 273.2 61.7 272.1 61.8 c -1 0.1 -2.1 0 -3.1 0 H 215.8 C 215.1 61.9 214.4 61.8 213.7 61.6 C 212.3 61.2 211 60.3 210.1 59.2 C 209.2 58.1 208.6 56.7 208.4 55.2 c -0.1 -1.5 0 -2.9 0 -4.4 c 0 -0.7 0 -1.5 0 -2.2 C 208.4 47.9 208.2 47.1 208 46.5 C 206.9 43.6 204 41.8 201 42 H 167 C 160 41.9 153.4 45 149 50.4 C 146.8 53.1 145.2 56.4 144.5 59.9 c -0.1 0.9 -0.3 1.8 -0.4 2.6 s -0.1 1.8 -0.1 2.7 v 51.4 c 0 31.7 0 65.6 0 101.3 V 329.9 q 0 29.1 0 59.2 q 0 15 0 30.3 V 427 C 143.9 429.5 144.2 432.1 144.9 434.5 C 146.4 439.4 149.4 443.7 153.6 446.6 C 157.8 449.5 162.9 450.9 168 450.6 h 15.3 l 30.3 0 l 59.2 0 l 28.8 0 H 314 l 1.8 -0.1 C 318.1 450.4 320.4 449.8 322.5 448.9 C 324.6 448 326.6 446.8 328.4 445.4 C 331.9 442.4 334.5 438.4 335.6 434 C 335.9 432.9 336.2 431.8 336.3 430.6 c 0 -1.1 0.1 -2.3 0.1 -3.4 v -6.9 q 0 -13.7 0 -27.1 c 0 -71.3 0.1 -135.6 0.1 -189.5 s 0.1 -97.6 0.1 -127.8 c 0 -3.8 0 -7.3 0 -10.7 C 336.7 62.2 336.1 59.1 335 56.2 C 334 53.7 332.6 51.4 330.8 49.5 C 329.3 47.8 327.6 46.4 325.7 45.3 C 323.1 43.7 320.2 42.7 317.2 42.3 C 316.5 42.2 315.7 42.1 314.9 42.1 Z" style="fill: #263238"></path><rect x="162" y="305.6" width="147.7" height="32.2" rx="5.8" style="fill: #407bff"></rect><path d="M 203.5 140.9 l 1.2 -2.6 C 206.1 139.3 207.8 139.8 209.6 139.8 c 2 0 2.9 -0.7 2.9 -1.6 c 0 -2.8 -8.7 -0.9 -8.7 -6.4 c 0 -2.5 2.1 -4.7 6.3 -4.7 C 211.9 127.1 213.7 127.6 215.3 128.5 l -1.1 2.6 C 212.9 130.4 211.5 130 210 129.9 c -2.1 0 -2.8 0.8 -2.8 1.7 c 0 2.8 8.7 0.8 8.7 6.3 c 0 2.5 -2.1 4.6 -6.3 4.6 C 207.4 142.7 205.3 142.1 203.5 140.9 Z"></path><path d="M 217.6 127.4 C 217.6 126.9 217.9 126.4 218.2 126 C 218.6 125.7 219.2 125.5 219.7 125.6 C 220.2 125.5 220.7 125.7 221.1 126 C 221.5 126.4 221.7 126.8 221.8 127.4 C 221.7 128.4 220.8 129.3 219.7 129.3 C 218.7 129.3 217.7 128.5 217.6 127.4 Z m 0.4 3.4 h 3.3 v 11.5 H 218 Z"></path><path d="M 236.3 130.9 v 9.6 c 0 4.3 -2.3 6.2 -6.4 6.2 C 227.8 146.8 225.9 146.2 224.2 145.1 l 1.3 -2.4 C 226.7 143.6 228.1 144 229.6 144 c 2.3 0 3.4 -1.1 3.4 -3.1 v -0.5 C 232 141.4 230.7 141.9 229.3 141.8 C 227.3 141.9 225.4 140.8 224.3 139.1 C 223.3 137.3 223.3 135.2 224.3 133.4 C 225.4 131.7 227.3 130.6 229.3 130.7 C 230.8 130.6 232.2 131.2 233.1 132.3 v -1.5 Z M 233 136.3 C 233.1 135 232.4 133.9 231.3 133.4 C 230.2 132.8 228.9 133 228 133.9 C 227.1 134.7 226.8 136 227.2 137.2 C 227.7 138.3 228.8 139.1 230 139.1 C 230.8 139.1 231.5 138.9 232.1 138.3 C 232.7 137.8 233 137 233 136.3 Z"></path><path d="M 251.1 135.8 v 6.6 h -3.3 V 136.3 c 0 -1.8 -0.9 -2.7 -2.3 -2.7 s -2.8 1 -2.8 3.1 v 5.7 h -3.3 V 130.9 h 3.2 v 1.3 C 243.5 131.2 244.9 130.7 246.4 130.7 C 249.1 130.7 251.1 132.3 251.1 135.8 Z"></path><path d="M 259.8 127.4 C 259.8 126.9 260 126.4 260.4 126 C 260.8 125.7 261.3 125.5 261.8 125.6 C 262.3 125.5 262.8 125.7 263.2 126 C 263.6 126.4 263.9 126.8 263.9 127.4 C 263.8 128.4 262.9 129.3 261.8 129.3 C 260.8 129.3 259.8 128.5 259.8 127.4 Z m 0.4 3.4 h 3.3 v 11.5 h -3.3 Z"></path><path d="M 278.3 135.8 v 6.6 H 275 V 136.3 c 0 -1.8 -0.9 -2.7 -2.3 -2.7 s -2.8 1 -2.8 3.1 v 5.7 h -3.3 V 130.9 h 3.2 v 1.3 C 270.8 131.2 272.1 130.7 273.6 130.7 C 276.3 130.7 278.3 132.3 278.3 135.8 Z"></path><path d="M 169.4 191.6 v 0.5 h -4.2 V 186.2 h 4.1 v 0.5 h -3.4 v 2.1 h 3.1 v 0.5 h -3.1 v 2.2 Z" style="fill: #263238"></path><path d="M 170.3 189.6 h 2.2 v 0.5 h -2.2 Z" style="fill: #263238"></path><path d="M 181.2 189.5 v 2.6 h -0.6 V 189.6 c 0 -0.9 -0.5 -1.4 -1.3 -1.4 C 178.9 188.2 178.4 188.3 178.2 188.6 C 177.9 188.9 177.7 189.4 177.8 189.8 v 2.3 h -0.6 V 189.6 c 0 -0.9 -0.5 -1.4 -1.3 -1.4 C 175.5 188.2 175.1 188.3 174.8 188.6 C 174.5 188.9 174.4 189.4 174.4 189.8 v 2.3 h -0.6 v -4.4 h 0.6 v 0.8 C 174.7 187.9 175.4 187.6 176 187.6 C 176.7 187.6 177.3 188 177.6 188.6 C 178 188 178.6 187.6 179.4 187.6 C 179.9 187.6 180.4 187.8 180.7 188.2 C 181.1 188.5 181.2 189 181.2 189.5 Z" style="fill: #263238"></path><path d="M 186.1 189.4 v 2.8 h -0.6 v -0.7 C 185.2 191.9 184.6 192.2 184 192.2 c -1 0 -1.6 -0.5 -1.6 -1.3 s 0.4 -1.3 1.7 -1.3 h 1.4 v -0.3 c 0 -0.8 -0.4 -1.2 -1.3 -1.2 C 183.7 188.2 183.2 188.3 182.8 188.7 l -0.3 -0.4 C 183 187.8 183.7 187.6 184.3 187.6 C 184.8 187.6 185.3 187.7 185.7 188.1 C 186 188.4 186.2 188.9 186.1 189.4 Z m -0.6 1.4 v -0.7 h -1.4 c -0.9 0 -1.1 0.3 -1.1 0.8 s 0.4 0.8 1.1 0.8 C 184.7 191.7 185.3 191.4 185.5 190.8 Z" style="fill: #263238"></path><path d="M 187.6 186.3 C 187.6 186.1 187.7 185.9 187.9 185.9 C 188.1 185.8 188.3 185.8 188.4 185.9 C 188.5 186.1 188.6 186.3 188.5 186.4 C 188.4 186.6 188.3 186.7 188.1 186.7 C 188 186.7 187.8 186.7 187.8 186.6 C 187.7 186.5 187.6 186.4 187.6 186.3 Z m 0.1 1.4 h 0.6 v 4.4 h -0.6 Z" style="fill: #263238"></path><path d="M 190.1 185.8 h 0.6 v 6.3 h -0.6 Z" style="fill: #263238"></path><path d="M 167.6 246.5 c 0 1.3 -0.9 2 -2.4 2 h -1.6 v 1.9 H 163 v -5.9 h 2.2 C 166.7 244.4 167.6 245.2 167.6 246.5 Z m -0.6 0 c 0 -0.9 -0.6 -1.5 -1.8 -1.5 h -1.6 V 248 h 1.6 C 166.3 248 167 247.4 167 246.5 Z"></path><path d="M 172.1 247.6 v 2.8 h -0.6 v -0.7 C 171.2 250.2 170.6 250.5 170 250.4 c -1 0 -1.6 -0.5 -1.6 -1.3 s 0.4 -1.3 1.7 -1.3 h 1.4 v -0.3 c 0 -0.8 -0.4 -1.2 -1.3 -1.2 C 169.7 246.4 169.2 246.6 168.8 246.9 l -0.3 -0.4 C 169 246.1 169.7 245.9 170.3 245.9 C 170.8 245.8 171.3 246 171.7 246.3 C 172 246.7 172.2 247.1 172.1 247.6 Z m -0.6 1.4 v -0.7 h -1.4 c -0.9 0 -1.2 0.3 -1.2 0.8 s 0.4 0.8 1.1 0.8 C 170.8 250 171.3 249.6 171.5 249 Z"></path><path d="M 173.2 249.9 l 0.3 -0.5 C 173.9 249.7 174.4 249.9 175 249.9 c 0.8 0 1.2 -0.3 1.2 -0.7 c 0 -1.2 -2.9 -0.2 -2.9 -2 c 0 -0.7 0.6 -1.3 1.8 -1.3 C 175.6 245.9 176.2 246 176.7 246.3 l -0.3 0.5 C 176 246.5 175.5 246.4 175.1 246.4 c -0.8 0 -1.2 0.3 -1.2 0.7 c 0 1.2 2.9 0.3 2.9 2 c 0 0.8 -0.7 1.3 -1.8 1.3 C 174.3 250.4 173.7 250.2 173.2 249.9 Z"></path><path d="M 177.3 249.9 l 0.3 -0.5 C 178 249.7 178.6 249.9 179.1 249.9 c 0.8 0 1.2 -0.3 1.2 -0.7 c 0 -1.2 -2.9 -0.2 -2.9 -2 c 0 -0.7 0.6 -1.3 1.8 -1.3 C 179.8 245.9 180.3 246 180.8 246.3 l -0.3 0.5 C 180.1 246.5 179.7 246.4 179.2 246.4 c -0.8 0 -1.2 0.3 -1.2 0.7 c 0 1.2 2.9 0.3 2.9 2 c 0 0.8 -0.7 1.3 -1.8 1.3 C 178.5 250.4 177.8 250.2 177.3 249.9 Z"></path><path d="M 188.5 245.9 l -1.7 4.4 h -0.6 l -1.4 -3.6 l -1.4 3.6 h -0.6 l -1.7 -4.4 h 0.6 l 1.4 3.8 l 1.4 -3.8 h 0.5 l 1.4 3.8 l 1.4 -3.8 Z"></path><path d="M 188.8 248.2 C 188.8 247.2 189.4 246.4 190.2 246 C 191.1 245.7 192 245.9 192.7 246.5 C 193.3 247.2 193.5 248.2 193.2 249 C 192.8 249.9 192 250.4 191.1 250.4 C 190.5 250.4 189.9 250.2 189.5 249.8 C 189 249.3 188.8 248.8 188.8 248.2 Z m 3.9 0 C 192.7 247.2 191.9 246.5 191 246.6 C 190.1 246.6 189.4 247.3 189.4 248.2 C 189.4 249.2 190.2 249.9 191.1 249.9 C 191.5 249.9 192 249.7 192.3 249.4 C 192.6 249 192.8 248.6 192.7 248.2 Z"></path><path d="M 196.8 245.9 v 0.6 h -0.1 C 196.2 246.4 195.8 246.6 195.5 246.9 C 195.2 247.3 195.1 247.7 195.2 248.1 v 2.3 h -0.6 v -4.4 h 0.6 v 0.9 C 195.4 246.2 196.1 245.8 196.8 245.9 Z"></path><path d="M 201.9 244.1 v 6.3 h -0.6 v -0.9 C 201 250.1 200.3 250.4 199.6 250.4 C 198.4 250.4 197.3 249.4 197.3 248.1 C 197.3 246.9 198.4 245.9 199.6 245.9 C 200.3 245.9 200.9 246.2 201.3 246.8 V 244.1 Z m -0.6 4.1 C 201.3 247.2 200.5 246.5 199.6 246.6 C 198.7 246.6 198 247.3 198 248.2 C 198 249.2 198.8 249.9 199.7 249.9 C 200.1 249.9 200.6 249.7 200.9 249.4 C 201.2 249 201.3 248.6 201.3 248.2 Z"></path><path d="M 216.6 324.2 l 0.6 -1.3 C 217.9 323.4 218.7 323.7 219.6 323.7 c 1 0 1.4 -0.3 1.4 -0.8 c 0 -1.4 -4.4 -0.4 -4.4 -3.2 c 0 -1.3 1 -2.3 3.1 -2.3 C 220.8 317.3 221.7 317.5 222.5 318 l -0.5 1.3 C 221.3 318.9 220.6 318.7 219.8 318.7 c -1 0 -1.4 0.4 -1.4 0.9 c 0 1.4 4.3 0.4 4.3 3.2 c 0 1.3 -1 2.3 -3.2 2.3 C 218.5 325.1 217.5 324.8 216.6 324.2 Z" style="fill: #ffffff"></path><path d="M 223.7 317.5 C 223.7 316.9 224.1 316.5 224.7 316.5 C 224.9 316.5 225.2 316.6 225.3 316.8 C 225.5 316.9 225.6 317.2 225.7 317.4 C 225.7 318 225.2 318.5 224.6 318.5 C 224 318.5 223.6 318 223.6 317.4 Z m 0.2 1.7 h 1.7 v 5.8 h -1.7 Z" style="fill: #ffffff"></path><path d="M 233 321.6 v 3.3 h -1.7 v -3 c 0 -0.9 -0.4 -1.4 -1.2 -1.4 s -1.4 0.5 -1.4 1.6 v 2.8 h -1.7 v -5.8 h 1.6 v 0.7 C 229.2 319.4 229.9 319.1 230.6 319.1 C 231.3 319.1 231.9 319.3 232.4 319.8 C 232.9 320.3 233.1 321 233 321.6 Z" style="fill: #ffffff"></path><path d="M 240.5 319.2 V 324 c 0 2.1 -1.2 3.1 -3.2 3.1 C 236.2 327.2 235.2 326.9 234.4 326.3 l 0.7 -1.2 C 235.7 325.6 236.4 325.8 237.1 325.8 c 1.2 0 1.7 -0.5 1.7 -1.6 V 324 C 238.3 324.5 237.6 324.8 237 324.7 C 235.9 324.8 234.9 324.3 234.4 323.4 C 233.9 322.5 233.9 321.4 234.4 320.5 C 234.9 319.6 235.9 319.1 237 319.2 C 237.7 319.1 238.4 319.4 238.9 320 v -0.7 Z m -1.6 2.7 C 238.9 321.3 238.5 320.7 238 320.4 C 237.4 320.1 236.7 320.2 236.3 320.7 C 235.8 321.1 235.7 321.8 235.9 322.3 C 236.1 322.9 236.7 323.3 237.3 323.3 C 237.7 323.3 238.1 323.2 238.4 322.9 C 238.7 322.7 238.8 322.3 238.8 321.9 Z" style="fill: #ffffff"></path><path d="M 244.8 317.5 C 244.9 316.9 245.3 316.5 245.8 316.5 C 246.1 316.5 246.3 316.6 246.5 316.8 C 246.7 316.9 246.8 317.2 246.8 317.4 C 246.8 318 246.4 318.5 245.8 318.5 C 245.2 318.5 244.8 318 244.8 317.4 Z m 0.2 1.7 h 1.7 v 5.8 H 245 Z" style="fill: #ffffff"></path><path d="M 254.1 321.6 v 3.3 h -1.7 v -3 c 0 -0.9 -0.4 -1.4 -1.2 -1.4 s -1.4 0.5 -1.4 1.6 v 2.8 h -1.7 v -5.8 h 1.6 v 0.7 C 250.4 319.4 251 319.1 251.8 319.1 C 252.4 319.1 253.1 319.3 253.5 319.8 C 254 320.3 254.2 321 254.1 321.6 Z" style="fill: #ffffff"></path><rect x="162" y="198.5" width="147.7" height="31.9" rx="7" style="fill: #ebebeb"></rect><path d="M 302.7 230.5 l 0.2 0 c 0.1 0 0.4 0 0.7 -0.1 C 304.5 230.3 305.3 230 306.1 229.6 C 307.3 228.9 308.3 227.8 308.9 226.6 C 309.3 225.8 309.5 224.9 309.6 224 c 0 -1 0 -2 0 -3.1 c 0 -4.4 0 -9.8 -0.1 -16 C 309.3 203.3 308.6 201.8 307.5 200.7 C 306.3 199.5 304.7 198.8 303 198.7 h -11.2 L 169 198.8 C 166 198.8 163.4 200.7 162.5 203.6 C 162.2 205 162.1 206.4 162.2 207.9 v 15.2 C 162.2 223.8 162.3 224.5 162.5 225.2 C 162.8 226.5 163.6 227.7 164.6 228.6 C 165.6 229.5 166.9 230 168.3 230.2 c 1.3 0.1 2.8 0 4.2 0 h 24.2 l 55.2 0.1 l 37.2 0.1 l 10.1 0 l 2.6 0 l 0.9 0 l -0.9 0 l -2.6 0 l -10.1 0 l -37.2 0.1 l -55.2 0.1 H 172.5 c -1.4 0 -2.8 0 -4.2 0 C 165.3 230.2 162.8 228.1 162 225.3 C 161.8 224.6 161.7 223.8 161.8 223.1 V 205.7 C 161.8 204.9 161.9 204.1 162.1 203.4 C 163 200.3 165.9 198.3 169.1 198.3 l 122.8 0.1 l 11.2 0 C 306.6 198.5 309.5 201.2 309.9 204.8 c 0.1 6.3 0 11.6 0 16 c 0 1.1 0 2.1 0 3.1 C 309.8 224.8 309.6 225.7 309.1 226.5 C 308.5 227.8 307.5 228.9 306.2 229.6 C 305.4 230 304.6 230.3 303.7 230.4 C 303.4 230.4 303 230.5 302.7 230.5 Z" style="fill: #263238"></path><rect x="162" y="256.2" width="147.7" height="31.9" rx="7" style="fill: #ebebeb"></rect><path d="M 302.7 288.1 l 0.2 0 C 303.1 288.1 303.4 288.1 303.6 288.1 C 304.5 287.9 305.3 287.7 306.1 287.2 C 307.3 286.5 308.3 285.5 308.9 284.2 C 309.3 283.4 309.5 282.5 309.6 281.7 c 0 -1 0 -2 0 -3.1 c 0 -4.4 0 -9.8 -0.1 -16 C 309.3 261 308.6 259.5 307.5 258.4 C 306.3 257.2 304.7 256.5 303 256.4 h -11.2 L 169 256.4 C 166 256.5 163.4 258.4 162.5 261.2 C 162.2 262.6 162.1 264.1 162.2 265.5 v 15.2 C 162.2 281.5 162.3 282.2 162.5 282.8 C 162.8 284.2 163.6 285.4 164.6 286.2 C 165.6 287.1 166.9 287.7 168.3 287.8 c 1.3 0.1 2.8 0 4.2 0 h 24.2 l 55.2 0.1 l 37.2 0.1 l 10.1 0.1 l 2.6 0 l 0.9 0 l -0.9 0 l -2.6 0 l -10.1 0.1 l -37.2 0.1 l -55.2 0.1 H 172.5 c -1.4 0 -2.8 0.1 -4.2 0 C 165.3 287.9 162.8 285.9 162 283 C 161.8 282.3 161.7 281.5 161.8 280.8 V 263.3 C 161.8 262.6 161.9 261.8 162.1 261.1 C 163 258 165.9 255.9 169.1 255.9 l 122.8 0.1 L 303 256 C 304.8 256.1 306.5 256.8 307.7 258.1 C 308.9 259.2 309.6 260.8 309.8 262.4 c 0.1 6.3 0 11.6 0 16 c 0 1.1 0 2.1 0 3.1 C 309.6 284 308.3 286.1 306.1 287.3 C 305.4 287.7 304.5 287.9 303.6 288 C 303.3 288.1 303 288.1 302.7 288.1 Z" style="fill: #263238"></path><path d="M 303.9 405.8 s 0.3 0 0.9 -0.1 C 305.7 405.6 306.5 405.2 307.2 404.7 C 308.4 403.9 309.2 402.6 309.5 401.2 C 309.6 400.3 309.7 399.4 309.6 398.5 c 0 -1 0 -2 0 -3.1 c 0 -4.4 0 -9.8 0 -16.1 C 309.5 377.6 308.8 376.1 307.6 375.1 C 306.9 374.6 306.2 374.2 305.4 374 C 304.5 373.8 303.7 373.7 302.8 373.8 l -11.3 0 l -123.7 0.1 C 166.3 373.9 165 374.4 163.9 375.5 C 162.9 376.5 162.3 377.9 162.3 379.3 q 0 4.5 0 8.9 v 10.9 C 162.3 399.8 162.3 400.5 162.4 401.2 C 162.7 402.6 163.5 403.7 164.6 404.5 C 165.2 404.9 165.8 405.2 166.5 405.4 C 167.2 405.5 167.8 405.6 168.5 405.5 h 28.6 l 55.6 0.1 l 37.5 0.1 l 10.2 0.1 l 2.6 0 l 0.9 0 l -0.9 0 l -2.6 0 l -10.2 0.1 L 252.7 406 l -55.6 0.1 H 168.5 C 167.8 406.1 167 406 166.3 405.9 C 165.6 405.7 164.9 405.4 164.3 405 C 163.1 404.1 162.2 402.8 161.9 401.3 C 161.8 400.6 161.7 399.9 161.8 399.1 V 379.3 C 161.8 376 164.4 373.3 167.8 373.3 l 123.7 0.1 l 11.3 0 C 303.6 373.3 304.5 373.4 305.4 373.6 C 306.3 373.8 307 374.2 307.7 374.8 C 309 375.9 309.8 377.5 309.8 379.2 c 0 6.3 0 11.7 0 16.1 c 0 1.1 0 2.1 0 3.1 C 309.9 399.3 309.8 400.3 309.7 401.2 C 309.4 402.6 308.5 403.9 307.3 404.7 C 306.6 405.2 305.8 405.6 304.9 405.7 C 304.6 405.8 304.2 405.8 303.9 405.8 Z" style="fill: #e0e0e0"></path><path d="M 268.7 389.7 c 0 0.1 -14.9 0.3 -33.4 0.3 s -33.4 -0.1 -33.4 -0.3 s 14.9 -0.3 33.4 -0.3 S 268.7 389.6 268.7 389.7 Z" style="fill: #e0e0e0"></path><circle cx="239" cy="101.9" r="12.5" transform="translate(0.3,203.2) rotate(-45)" style="fill: #f5f5f5"></circle><path d="M 249.5 115.7 C 249 111.5 245.5 108.5 241.4 108.5 C 237.3 108.6 233.9 111.6 233.3 115.7 C 235.5 117.7 238.4 118.8 241.4 118.7 C 244.4 118.8 247.3 117.7 249.5 115.7 Z" style="fill: #e0e0e0"></path><circle cx="241.4" cy="104.5" r="4.9" style="fill: #e0e0e0"></circle><path d="M 249.4 115.2 C 249.3 114.4 249 113.6 248.7 112.9 C 248.2 112.1 247.6 111.3 246.9 110.7 C 246 109.9 244.9 109.3 243.7 108.9 l -0.3 -0.1 l 0.2 -0.1 C 244.5 108.3 245.2 107.6 245.6 106.7 C 246.7 104.8 246.3 102.4 244.6 100.9 C 242.8 99.3 240.1 99.3 238.3 100.9 C 237.4 101.6 236.9 102.6 236.7 103.7 C 236.6 104.8 236.7 105.8 237.2 106.7 C 237.5 107.2 237.8 107.5 238.1 107.9 C 238.4 108.2 238.8 108.5 239.2 108.7 l 0.2 0.1 l -0.3 0.1 C 238 109.2 236.9 109.8 236 110.7 C 235.3 111.3 234.7 112.1 234.3 112.9 C 234 113.5 233.8 114.1 233.6 114.6 C 233.6 114.8 233.5 114.9 233.5 115.1 C 233.5 115.2 233.5 115.2 233.5 115.3 s 0 -0.1 0 -0.2 s 0 -0.3 0.1 -0.5 C 233.7 114 233.9 113.4 234.2 112.9 C 234.6 112 235.1 111.2 235.8 110.5 C 236.7 109.7 237.9 109 239.1 108.7 l 0 0.2 C 238.7 108.7 238.3 108.4 238 108.1 C 237.6 107.7 237.3 107.3 237 106.9 C 236.5 105.9 236.3 104.8 236.5 103.7 C 236.7 102.6 237.2 101.5 238.1 100.7 C 239 99.9 240.2 99.4 241.5 99.4 C 243.3 99.4 244.9 100.3 245.8 101.9 C 246.8 103.4 246.8 105.3 245.9 106.9 C 245.4 107.7 244.7 108.4 243.8 108.9 l 0 -0.2 C 245 109.1 246.1 109.7 247.1 110.5 C 247.8 111.2 248.4 112 248.8 112.8 C 249 113.1 249.1 113.5 249.2 113.8 C 249.3 114.1 249.4 114.3 249.4 114.6 l 0.1 0.5 C 249.4 115.2 249.4 115.2 249.4 115.2 Z" style="fill: #263238"></path><path d="M 253.9 106.2 C 253.9 106.1 253.9 106 253.9 106 c 0 -0.2 0 -0.3 0 -0.6 s 0 -0.3 0 -0.4 s 0 -0.3 -0.1 -0.5 C 253.8 104 253.7 103.5 253.6 103.1 C 253.3 101.9 252.8 100.8 252.2 99.8 C 251.4 98.4 250.3 97.2 249 96.3 C 247.4 95.1 245.6 94.3 243.7 94 C 241.5 93.6 239.3 93.8 237.2 94.5 C 236.6 94.7 236.1 95 235.5 95.3 C 235 95.6 234.5 95.9 234 96.3 C 233.5 96.6 233.1 97 232.6 97.5 C 231.3 98.8 230.3 100.5 229.6 102.3 C 228.8 104.8 228.8 107.6 229.6 110.1 C 230 111.4 230.6 112.5 231.4 113.5 C 231.8 114.1 232.2 114.5 232.6 115 C 233.1 115.4 233.5 115.8 234 116.2 C 234.5 116.5 235 116.9 235.5 117.2 C 236.1 117.5 236.6 117.7 237.2 117.9 C 239.2 118.6 241.5 118.8 243.7 118.4 C 247.2 117.8 250.2 115.7 252.1 112.6 C 252.7 111.6 253.2 110.5 253.5 109.3 C 253.6 108.9 253.7 108.4 253.7 108 c 0 -0.2 0.1 -0.4 0.1 -0.5 s 0 -0.3 0 -0.4 s 0 -0.5 0 -0.6 C 253.8 106.4 253.8 106.3 253.8 106.2 v 0.8 c 0 0.1 0 0.3 0 0.4 s 0 0.3 -0.1 0.5 C 253.7 108.4 253.6 108.9 253.5 109.3 C 253.2 110.5 252.8 111.6 252.1 112.7 C 251.3 114.1 250.2 115.3 249 116.3 C 247.4 117.5 245.6 118.3 243.7 118.7 C 241.4 119.1 239.1 118.9 237 118.1 C 236.4 117.9 235.9 117.7 235.3 117.4 C 234.8 117.1 234.3 116.8 233.8 116.4 C 233.3 116 232.8 115.6 232.4 115.2 C 231.9 114.7 231.5 114.2 231.1 113.7 C 230.3 112.7 229.7 111.5 229.3 110.2 C 228.4 107.6 228.4 104.8 229.3 102.2 C 229.7 101 230.3 99.8 231.1 98.7 C 231.5 98.2 231.9 97.7 232.4 97.3 C 232.8 96.8 233.3 96.4 233.9 96 C 234.4 95.6 234.9 95.3 235.4 95 C 236 94.7 236.5 94.5 237.1 94.3 C 241.1 92.8 245.7 93.5 249.1 96.1 C 250.4 97.1 251.4 98.3 252.3 99.7 C 252.9 100.8 253.4 101.9 253.6 103.1 C 253.7 103.5 253.8 104 253.9 104.4 c 0 0.2 0.1 0.4 0.1 0.5 s 0 0.3 0 0.4 v 0.8 Z" style="fill: #263238"></path><path d="M 318.8 158.2 c 0 0.2 -35.2 0.3 -78.5 0.3 s -78.5 -0.1 -78.5 -0.3 s 35.2 -0.3 78.5 -0.3 S 318.8 158.1 318.8 158.2 Z" style="fill: #e0e0e0"></path><path d="M 318.8 355.9 c 0 0.1 -35.2 0.3 -78.5 0.3 s -78.5 -0.1 -78.5 -0.3 s 35.2 -0.3 78.5 -0.3 S 318.8 355.7 318.8 355.9 Z" style="fill: #e0e0e0"></path><path d="M 176.8 271.6 l 2.2 1.3 l -0.6 1 l -2.3 -1.3 l 0 2.6 h -1.1 l 0 -2.6 l -2.3 1.3 l -0.6 -1 l 2.3 -1.3 l -2.3 -1.2 l 0.6 -1 l 2.3 1.3 l 0 -2.5 h 1.1 l 0 2.5 l 2.3 -1.3 l 0.6 1 Z" style="fill: #ffffff"></path><path d="M 184.8 271.6 L 187 272.9 l -0.6 1 l -2.3 -1.3 l 0 2.6 H 183 l 0 -2.6 l -2.3 1.3 l -0.6 -1 l 2.3 -1.3 l -2.3 -1.2 l 0.6 -1 l 2.3 1.3 l 0 -2.5 h 1.1 l 0 2.5 l 2.3 -1.3 l 0.6 1 Z" style="fill: #ffffff"></path><path d="M 192.7 271.6 l 2.2 1.3 l -0.6 1 L 192 272.6 l 0 2.6 h -1.1 l 0 -2.6 l -2.3 1.3 l -0.6 -1 l 2.3 -1.3 l -2.3 -1.2 l 0.6 -1 l 2.3 1.3 l 0 -2.5 h 1.1 l 0 2.5 l 2.3 -1.3 l 0.6 1 Z" style="fill: #ffffff"></path><path d="M 200.6 271.6 l 2.2 1.3 l -0.6 1 l -2.3 -1.3 l 0 2.6 h -1.1 l 0 -2.6 l -2.3 1.3 l -0.6 -1 l 2.3 -1.3 L 196 270.4 l 0.6 -1 l 2.3 1.3 l 0 -2.5 H 200 l 0 2.5 l 2.3 -1.3 l 0.6 1 Z" style="fill: #ffffff"></path><path d="M 177.3 214.5 V 217 h -0.6 v -2.5 C 176.8 214.1 176.6 213.7 176.4 213.4 C 176.1 213.2 175.7 213 175.4 213.1 C 174.9 213 174.5 213.2 174.2 213.5 C 173.9 213.8 173.8 214.2 173.8 214.7 V 217 h -0.6 V 212.6 h 0.6 v 0.8 C 174.1 212.8 174.8 212.5 175.5 212.6 C 176 212.5 176.5 212.7 176.8 213.1 C 177.2 213.4 177.4 214 177.3 214.5 Z" style="fill: #ffffff"></path><path d="M 182.3 214.3 V 217 h -0.6 v -0.7 C 181.4 216.8 180.8 217.1 180.2 217.1 c -1 0 -1.6 -0.5 -1.6 -1.3 s 0.4 -1.3 1.7 -1.3 h 1.4 v -0.3 c 0 -0.8 -0.4 -1.2 -1.3 -1.2 C 179.9 213 179.4 213.2 179 213.6 l -0.3 -0.4 C 179.2 212.7 179.8 212.5 180.5 212.5 C 181 212.4 181.5 212.6 181.8 213 C 182.2 213.3 182.4 213.8 182.3 214.3 Z m -0.6 1.4 V 215 h -1.4 c -0.9 0 -1.1 0.3 -1.1 0.8 s 0.4 0.8 1.1 0.8 C 180.9 216.7 181.5 216.3 181.7 215.7 Z" style="fill: #ffffff"></path><path d="M 191.3 214.5 V 217 h -0.6 v -2.5 c 0 -0.9 -0.5 -1.4 -1.3 -1.4 C 189 213 188.5 213.2 188.3 213.5 C 188 213.8 187.8 214.3 187.9 214.7 V 217 h -0.6 v -2.5 c 0 -0.9 -0.5 -1.4 -1.3 -1.4 C 185.6 213 185.2 213.2 184.9 213.5 C 184.6 213.8 184.5 214.3 184.5 214.7 V 217 h -0.6 V 212.6 h 0.6 v 0.8 C 184.8 212.9 185.5 212.5 186.1 212.6 C 186.8 212.5 187.4 212.9 187.7 213.5 C 188.1 212.9 188.7 212.5 189.5 212.6 C 190 212.5 190.5 212.7 190.8 213.1 C 191.2 213.4 191.3 214 191.3 214.5 Z" style="fill: #ffffff"></path><path d="M 196.8 215 h -3.7 C 193.1 215.4 193.3 215.8 193.6 216.1 C 193.9 216.4 194.4 216.6 194.8 216.5 C 195.3 216.6 195.8 216.3 196.2 216 l 0.3 0.4 C 195.9 217 194.9 217.2 194 216.9 C 193.1 216.5 192.6 215.7 192.5 214.8 C 192.5 214.2 192.7 213.6 193.1 213.2 C 193.5 212.8 194.1 212.5 194.7 212.5 C 195.3 212.5 195.8 212.8 196.3 213.2 C 196.7 213.6 196.9 214.2 196.8 214.8 Z m -3.7 -0.4 h 3.2 C 196.1 213.7 195.5 213.1 194.6 213.1 C 193.8 213.1 193.1 213.7 193.1 214.6 Z" style="fill: #ffffff"></path><path d="M 205.5 214.8 c 0 1.4 -0.5 2.3 -1.4 2.3 C 203.8 217.1 203.6 217 203.4 216.8 C 203.2 216.7 203.1 216.4 203.1 216.2 C 202.8 216.8 202.1 217.1 201.4 217.1 C 200.3 217 199.4 216.1 199.4 214.9 C 199.4 213.8 200.3 212.8 201.4 212.7 C 202.1 212.7 202.7 213 203.1 213.6 v -0.8 h 0.6 V 216 c 0 0.5 0.2 0.6 0.5 0.6 c 0.5 0 0.9 -0.7 0.9 -1.8 C 205.1 213.9 204.7 213.1 204 212.4 C 203.4 211.8 202.5 211.5 201.6 211.5 C 200.3 211.5 199.1 212.1 198.5 213.2 C 197.8 214.3 197.8 215.6 198.5 216.7 C 199.1 217.8 200.3 218.4 201.6 218.3 C 202.1 218.3 202.7 218.2 203.2 218 l 0.1 0.4 C 202.8 218.6 202.2 218.8 201.6 218.8 C 200.2 218.8 198.9 218 198.2 216.9 C 197.6 215.7 197.6 214.2 198.2 213 C 198.9 211.8 200.2 211.1 201.6 211.1 C 202.6 211 203.6 211.4 204.3 212.1 C 205.1 212.8 205.5 213.8 205.5 214.8 Z m -2.4 0.1 C 203.1 214 202.3 213.3 201.4 213.4 C 200.6 213.4 199.9 214.1 199.9 215 C 199.9 215.9 200.6 216.6 201.5 216.6 C 201.9 216.6 202.4 216.4 202.7 216.1 C 203 215.8 203.1 215.3 203.1 214.9 Z" style="fill: #ffffff"></path><path d="M 214.1 214.5 V 217 h -0.6 v -2.5 c 0 -0.9 -0.5 -1.4 -1.3 -1.4 C 211.8 213 211.4 213.2 211.1 213.5 C 210.8 213.8 210.7 214.3 210.7 214.7 V 217 h -0.6 v -2.5 c 0 -0.9 -0.5 -1.4 -1.3 -1.4 C 208.4 213 208 213.2 207.7 213.5 C 207.4 213.8 207.3 214.3 207.3 214.7 V 217 h -0.6 V 212.6 h 0.6 v 0.8 C 207.7 212.9 208.3 212.5 209 212.6 C 209.6 212.5 210.3 212.9 210.5 213.5 C 210.9 212.9 211.6 212.5 212.3 212.6 C 212.8 212.5 213.3 212.7 213.6 213.1 C 214 213.5 214.1 214 214.1 214.5 Z" style="fill: #ffffff"></path><path d="M 219.1 214.3 V 217 h -0.6 v -0.7 C 218.2 216.8 217.6 217.1 217 217.1 c -1 0 -1.6 -0.5 -1.6 -1.3 s 0.4 -1.3 1.7 -1.3 h 1.4 v -0.3 c 0 -0.8 -0.4 -1.2 -1.3 -1.2 C 216.7 213 216.1 213.2 215.7 213.6 l -0.3 -0.4 C 216 212.7 216.6 212.5 217.3 212.5 C 217.8 212.4 218.3 212.6 218.6 213 C 219 213.3 219.1 213.8 219.1 214.3 Z m -0.6 1.4 V 215 h -1.4 c -0.9 0 -1.1 0.3 -1.1 0.8 s 0.4 0.8 1.1 0.8 C 217.7 216.7 218.2 216.3 218.5 215.7 Z" style="fill: #ffffff"></path><path d="M 220.6 211.2 C 220.6 211.1 220.6 211 220.7 210.9 C 220.8 210.8 220.9 210.8 221 210.8 C 221.2 210.7 221.3 210.8 221.4 211 C 221.5 211.1 221.5 211.3 221.4 211.4 C 221.3 211.6 221.2 211.6 221 211.6 C 220.9 211.6 220.8 211.6 220.7 211.5 C 220.6 211.4 220.6 211.3 220.6 211.2 Z m 0.1 1.4 h 0.6 V 217 h -0.6 Z" style="fill: #ffffff"></path><path d="M 223 210.8 h 0.6 V 217 H 223 Z" style="fill: #ffffff"></path><path d="M 224.9 216.6 C 224.9 216.5 224.9 216.4 225 216.3 C 225.1 216.2 225.2 216.2 225.3 216.2 C 225.6 216.2 225.8 216.4 225.8 216.6 C 225.8 216.9 225.6 217.1 225.3 217.1 C 225.2 217.1 225.1 217 225 216.9 C 224.9 216.9 224.9 216.7 224.9 216.6 Z" style="fill: #ffffff"></path><path d="M 226.5 214.8 C 226.4 214.2 226.7 213.6 227.1 213.2 C 227.6 212.8 228.1 212.5 228.8 212.6 C 229.5 212.5 230.1 212.9 230.5 213.4 l -0.4 0.3 C 229.8 213.3 229.3 213.1 228.8 213.1 C 227.8 213.1 227 213.9 227 214.8 C 227 215.8 227.8 216.5 228.8 216.5 C 229.3 216.6 229.8 216.3 230.1 215.9 l 0.4 0.3 C 230.1 216.8 229.5 217.1 228.8 217.1 C 228.1 217.1 227.6 216.9 227.1 216.5 C 226.7 216 226.5 215.4 226.5 214.8 Z" style="fill: #ffffff"></path><path d="M 231.2 214.8 C 231.2 213.6 232.2 212.6 233.4 212.6 C 234.7 212.6 235.7 213.6 235.7 214.8 C 235.7 216.1 234.7 217.1 233.4 217.1 C 232.8 217.1 232.2 216.9 231.8 216.4 C 231.4 216 231.1 215.4 231.2 214.8 Z m 3.9 0 C 235 213.9 234.3 213.2 233.4 213.3 C 232.5 213.3 231.7 214 231.8 214.9 C 231.8 215.8 232.5 216.5 233.4 216.5 C 233.9 216.6 234.3 216.4 234.6 216 C 234.9 215.7 235.1 215.3 235.1 214.8 Z" style="fill: #ffffff"></path><path d="M 244.2 214.5 V 217 h -0.6 v -2.5 c 0 -0.9 -0.5 -1.4 -1.3 -1.4 C 241.9 213 241.5 213.2 241.2 213.5 C 241 213.8 240.8 214.3 240.9 214.7 V 217 h -0.6 v -2.5 c 0 -0.9 -0.5 -1.4 -1.3 -1.4 C 238.6 213 238.2 213.2 237.9 213.5 C 237.6 213.8 237.4 214.3 237.5 214.7 V 217 h -0.6 V 212.6 h 0.6 v 0.8 C 237.8 212.9 238.4 212.5 239.1 212.6 C 239.8 212.5 240.4 212.9 240.7 213.5 C 241.1 212.9 241.7 212.5 242.4 212.6 C 242.9 212.5 243.4 212.7 243.8 213.1 C 244.1 213.4 244.3 214 244.2 214.5 Z" style="fill: #ffffff"></path><path d="M 167.9 82.8 C 167.8 82.8 167.7 82.7 167.6 82.7 l -4.7 -4.1 C 162.8 78.4 162.7 78.3 162.7 78.2 C 162.7 78 162.8 77.9 162.9 77.8 l 4.7 -3.9 C 167.7 73.8 167.8 73.8 167.9 73.8 C 168.1 73.8 168.2 73.8 168.3 74 C 168.3 74.1 168.4 74.2 168.4 74.3 C 168.4 74.4 168.3 74.6 168.2 74.7 L 164 78.2 l 4.3 3.7 C 168.4 82 168.4 82.1 168.4 82.3 C 168.4 82.4 168.4 82.5 168.3 82.6 C 168.2 82.7 168 82.8 167.9 82.8 Z" style="fill: #263238"></path><path d="M 304.3 78.3 C 304.3 79.3 303.7 80.2 302.7 80.6 C 301.8 81 300.7 80.8 300 80.1 C 299.3 79.3 299.1 78.3 299.5 77.3 C 299.8 76.4 300.8 75.8 301.8 75.8 C 303.2 75.8 304.3 76.9 304.3 78.3 Z" style="fill: #263238"></path><path d="M 311.5 78.3 C 311.5 79.7 310.4 80.8 309 80.8 C 307.6 80.8 306.5 79.7 306.5 78.3 C 306.5 76.9 307.6 75.8 309 75.8 C 309.7 75.8 310.3 76 310.8 76.5 C 311.3 77 311.5 77.6 311.5 78.3 Z" style="fill: #263238"></path><path d="M 318.8 78.3 C 318.8 79.3 318.1 80.2 317.2 80.6 C 316.3 81 315.2 80.8 314.5 80.1 C 313.8 79.3 313.5 78.3 313.9 77.3 C 314.3 76.4 315.2 75.8 316.3 75.8 C 317.6 75.8 318.8 76.9 318.8 78.3 Z" style="fill: #263238"></path></g><g id="freepik--speech-bubble--inject-59"><path d="M 443.5 164.8 H 383.6 a 9.4 9.4 0 0 0 -9.4 9.4 v 14.9 a 9.4 9.4 0 0 0 9.4 9.4 h 0.6 v 8.5 l 9.6 -8.5 h 49.7 a 9.4 9.4 0 0 0 9.4 -9.4 v -14.9 A 9.4 9.4 0 0 0 443.5 164.8 Z" style="fill: #ffffff"></path><path d="M 443.5 164.8 H 444 a 8.6 8.6 0 0 1 1.4 0.1 c 0.3 0.1 0.6 0.1 1 0.2 a 10.2 10.2 0 0 1 1.2 0.5 a 9.3 9.3 0 0 1 2.6 1.7 a 9.7 9.7 0 0 1 2.2 3.2 a 10.9 10.9 0 0 1 0.8 4.6 c 0 3.3 0 7.1 0 11.3 c 0 1.1 0 2.1 0 3.3 a 9.6 9.6 0 0 1 -6 8.3 a 10.1 10.1 0 0 1 -3.8 0.7 h -4 l -8.3 0 l -37.3 0 l 0.2 -0.1 l -9.6 8.5 l -0.4 0.4 v -9.1 l 0.3 0.3 a 10.2 10.2 0 0 1 -5.4 -1.3 a 9.9 9.9 0 0 1 -3.8 -3.9 a 10.6 10.6 0 0 1 -0.9 -2.6 a 12.8 12.8 0 0 1 -0.2 -2.7 c 0 -1.8 0 -3.5 0 -5.2 v -7.6 c 0 -0.8 0 -1.7 0.1 -2.5 a 9.7 9.7 0 0 1 5.6 -7.7 a 10.2 10.2 0 0 1 4.6 -0.9 H 397.4 l 15.5 0 l 22.4 0.1 l 6.1 0 l 1.6 0 c 0.4 0 0.5 0 0.5 0 l -0.5 0 l -1.6 0 l -6.1 0 l -22.4 0.1 l -15.5 0 H 384.2 a 9.6 9.6 0 0 0 -4.4 0.8 a 9.2 9.2 0 0 0 -5.3 7.3 a 22.3 22.3 0 0 0 -0.1 2.5 v 12.8 a 12.2 12.2 0 0 0 0.2 2.6 a 10.2 10.2 0 0 0 0.9 2.4 a 9.3 9.3 0 0 0 3.6 3.7 a 9.7 9.7 0 0 0 5.1 1.2 h 0.3 v 8.8 l -0.4 -0.2 l 9.6 -8.5 l 0.1 -0.1 h 0.1 l 37.3 0 h 8.3 c 2.7 -0.1 5.3 0.3 7.6 -0.7 a 9.2 9.2 0 0 0 5.8 -8 c 0.1 -1.1 0 -2.2 0 -3.2 c 0 -4.2 0 -8 0 -11.3 a 10.8 10.8 0 0 0 -0.7 -4.5 a 9.5 9.5 0 0 0 -2.1 -3.1 a 9.1 9.1 0 0 0 -2.5 -1.7 a 10.8 10.8 0 0 0 -1.1 -0.5 l -1 -0.3 A 17.6 17.6 0 0 0 443.5 164.8 Z" style="fill: #263238"></path><path d="M 392.6 181.1 l 1.9 1 l -1.1 1.8 l -2 -1.2 l 0.1 2.2 h -2.1 l 0.1 -2.2 l -2 1.2 l -1.1 -1.8 l 1.9 -1 l -1.9 -1.1 l 1.1 -1.8 l 2 1.2 l -0.1 -2.2 h 2.1 l -0.1 2.2 l 2 -1.2 l 1.1 1.8 Z" style="fill: #e0e0e0"></path><path d="M 401.5 181.1 l 1.9 1 l -1.1 1.8 l -2 -1.2 l 0.1 2.2 h -2.1 l 0 -2.2 l -2 1.2 l -1.1 -1.8 l 1.9 -1 l -1.9 -1.1 l 1.1 -1.8 l 2 1.2 l 0 -2.2 h 2.1 l -0.1 2.2 l 2 -1.2 l 1.1 1.8 Z" style="fill: #e0e0e0"></path><path d="M 410.4 181.1 l 1.9 1 l -1.1 1.8 l -2 -1.2 l 0.1 2.2 h -2.1 l 0.1 -2.2 l -2 1.2 l -1.1 -1.8 l 1.9 -1 l -1.9 -1.1 l 1.1 -1.8 l 2 1.2 l -0.1 -2.2 h 2.1 l -0.1 2.2 l 2 -1.2 l 1.1 1.8 Z" style="fill: #e0e0e0"></path><path d="M 419.3 181.1 l 1.9 1 l -1.1 1.8 l -2 -1.2 l 0.1 2.2 h -2.1 l 0.1 -2.2 l -2 1.2 l -1.1 -1.8 l 1.9 -1 l -1.9 -1.1 l 1.1 -1.8 l 2 1.2 l -0.1 -2.2 h 2.1 l -0.1 2.2 l 2 -1.2 l 1.1 1.8 Z" style="fill: #e0e0e0"></path><path d="M 428.2 181.1 l 1.9 1 l -1.1 1.8 l -2 -1.2 l 0.1 2.2 H 425 l 0.1 -2.2 l -2 1.2 l -1.1 -1.8 l 1.9 -1 L 422 180.1 l 1.1 -1.8 l 2 1.2 l -0.1 -2.2 h 2.1 l -0.1 2.2 l 2 -1.2 l 1.1 1.8 Z" style="fill: #e0e0e0"></path><path d="M 437.1 181.1 l 1.9 1 L 438 184 l -2 -1.2 l 0 2.2 h -2.1 l 0.1 -2.2 L 432 184 l -1.1 -1.8 l 1.9 -1 l -1.9 -1.1 l 1.1 -1.8 l 2 1.2 l -0.1 -2.2 H 436 l 0 2.2 l 2 -1.2 l 1.1 1.8 Z" style="fill: #e0e0e0"></path></g><g id="freepik--Plant--inject-59"><path d="M 52.1 219.6 c 11.8 6.1 20.8 16.6 27.3 28.2 s 10.7 24.3 14.8 36.9 l 3.6 65.1 C 84.2 326.5 73.2 299 70.2 272.1 l 9.1 -0.8 c -6.1 -0.9 -11.3 -5.4 -14.5 -10.6 s -5 -11.3 -6.6 -17.3 L 69.3 245 A 41.3 41.3 0 0 1 52.1 219.6 Z" style="fill: #455a64"></path><g style="opacity: 0.30000000000000004"><path d="M 52.1 219.6 c 11.8 6.1 20.8 16.6 27.3 28.2 s 10.7 24.3 14.8 36.9 l 3.6 65.1 C 84.2 326.5 73.2 299 70.2 272.1 l 9.1 -0.8 c -6.1 -0.9 -11.3 -5.4 -14.5 -10.6 s -5 -11.3 -6.6 -17.3 L 69.3 245 A 41.3 41.3 0 0 1 52.1 219.6 Z"></path></g><path d="M 100 365.1 s 29.8 -35.6 29.4 -69.7 h -12 s 13.1 -8.6 12 -13.4 s -1.4 -23 -1.4 -23 l -11 2.8 s 8.3 -4.1 9.3 -10.7 s -2.4 -36.8 -2.4 -36.8 s -13.4 14.1 -17.5 28.5 s -15 31.3 -11.8 75.3 S 100 365.1 100 365.1 Z" style="fill: #455a64"></path><path d="M 84.8 368.4 s -32.3 -21.5 -39.4 -48.9 l 9.7 -2.6 s -12.4 -4 -12.6 -8.1 s -3.9 -18.8 -3.9 -18.8 l 9.4 -0.2 s -7.5 -1.5 -9.8 -6.5 s -6.1 -30.1 -6.1 -30.1 s 13.9 8.4 20.3 19.1 s 18.9 21.9 25.9 58 S 84.8 368.4 84.8 368.4 Z" style="fill: #455a64"></path><path d="M 115.8 245.3 a 2.2 2.2 0 0 1 -0.1 0.4 l -0.2 1.1 c -0.2 1 -0.5 2.4 -0.8 4.3 s -0.8 4.1 -1.3 6.7 s -1.1 5.6 -1.7 8.9 c -1.2 6.6 -2.5 14.5 -3.9 23.3 s -2.6 18.5 -3.8 28.7 s -2.1 19.9 -2.8 28.8 s -1.2 16.9 -1.5 23.6 c -0.2 3.4 -0.3 6.4 -0.4 9.1 s -0.2 5 -0.2 6.8 s -0.1 3.3 -0.1 4.3 c 0 0.5 0 0.8 -0.1 1.1 a 2.3 2.3 0 0 1 0 0.4 a 2.2 2.2 0 0 1 0 -0.4 c 0 -0.3 0 -0.7 0 -1.1 c 0 -1 0 -2.5 0 -4.3 s 0.1 -4.2 0.2 -6.9 s 0.2 -5.7 0.3 -9.1 c 0.3 -6.7 0.8 -14.7 1.4 -23.6 s 1.6 -18.6 2.8 -28.8 s 2.5 -19.9 3.9 -28.7 s 2.7 -16.7 4 -23.3 c 0.6 -3.3 1.2 -6.3 1.8 -8.9 s 1 -4.9 1.4 -6.7 s 0.7 -3.2 0.9 -4.2 l 0.3 -1.1 A 2.2 2.2 0 0 1 115.8 245.3 Z" style="fill: #263238"></path><path d="M 104.1 386.9 s 27.3 -30.9 35.7 -49.6 l -6.4 -2.7 c 4.6 0.8 9.4 -1.2 13 -4.3 s 6.2 -7 8.8 -10.9 L 146.8 318 a 31.3 31.3 0 0 0 18.4 -14.3 c -9.9 1.6 -18.9 7.1 -26.3 13.9 A 131.6 131.6 0 0 0 122.9 336.1 a 62.6 62.6 0 0 0 -6.2 10.2 C 112.1 355.8 104.1 375.6 104.1 386.9 Z" style="fill: #455a64"></path><path d="M 45 271.1 a 2 2 0 0 1 0.2 0.3 c 0.1 0.2 0.3 0.5 0.5 0.9 c 0.4 0.8 1 1.9 1.8 3.4 c 1.5 2.9 3.6 7.2 6.2 12.6 s 5.5 11.8 8.6 18.9 s 6.4 15.1 9.7 23.6 s 6.2 16.5 8.7 23.9 s 4.7 14.1 6.3 19.8 s 3 10.3 3.9 13.5 l 1 3.7 l 0.3 1 a 1.4 1.4 0 0 1 0.1 0.3 a 1 1 0 0 1 -0.1 -0.3 c -0.1 -0.2 -0.2 -0.6 -0.3 -0.9 c -0.3 -0.9 -0.6 -2.1 -1.1 -3.7 c -0.9 -3.2 -2.3 -7.8 -4 -13.4 s -3.9 -12.3 -6.5 -19.8 s -5.5 -15.5 -8.7 -23.9 s -6.5 -16.4 -9.6 -23.6 s -6 -13.6 -8.5 -19 s -4.6 -9.7 -6 -12.6 l -1.7 -3.4 c -0.2 -0.4 -0.3 -0.7 -0.4 -0.9 A 1.8 1.8 0 0 1 45 271.1 Z" style="fill: #263238"></path><path d="M 101.8 400.2 a 2.8 2.8 0 0 1 0 -0.6 c 0 -0.4 0.1 -1 0.2 -1.7 s 0.2 -1.6 0.3 -2.6 s 0.3 -2.2 0.6 -3.5 c 0.4 -2.5 1.1 -5.6 2 -8.9 s 2 -6.9 3.4 -10.6 s 2.9 -7.1 4.5 -10.2 s 3 -5.8 4.4 -8 c 0.7 -1.1 1.3 -2.1 1.9 -3 s 1 -1.6 1.5 -2.2 s 0.7 -1 1 -1.4 a 2.4 2.4 0 0 1 0.4 -0.5 a 3.1 3.1 0 0 1 -0.3 0.5 l -0.9 1.4 c -0.4 0.6 -0.9 1.4 -1.4 2.2 s -1.2 1.9 -1.8 3 c -1.3 2.2 -2.8 4.9 -4.3 8 s -3 6.5 -4.4 10.2 s -2.5 7.3 -3.4 10.5 s -1.6 6.3 -2.1 8.8 c -0.3 1.3 -0.5 2.4 -0.6 3.4 s -0.3 1.9 -0.4 2.6 s -0.2 1.2 -0.3 1.6 A 2.6 2.6 0 0 1 101.8 400.2 Z" style="fill: #263238"></path><rect x="65.8" y="392.9" width="59.7" height="12.2" style="fill: #407bff"></rect><polygon points="119.8,405.1 113.3,446 77.3,446 71.3,405.1 119.8,405.1" style="fill: #407bff"></polygon><path d="M 69.5 405.1 c 0 -0.1 11.3 -0.3 25.2 -0.3 s 25.2 0.1 25.2 0.3 s -11.3 0.3 -25.2 0.3 S 69.5 405.2 69.5 405.1 Z" style="fill: #263238"></path></g><g id="freepik--Character--inject-59"><path d="M 367.2 399.4 s 71.7 -37.4 87.3 -16.8 s -15.6 36.8 -21.6 40.4 s -66.9 24.3 -66.9 24.3 l -16.1 -17.1 Z" style="fill: #263238"></path><path d="M 395.5 419.4 l 28.6 15.4 l 26.1 5.7 C 451.1 440.6 451.9 441.2 452.3 442 C 452.8 442.8 452.9 443.7 452.7 444.6 h 0 C 452.4 445.7 451.6 446.5 450.6 446.8 c -6.5 2.3 -30.4 10.4 -32.4 9.2 c -2.4 -1.4 -31.2 -14.2 -31.2 -14.2 Z" style="fill: #407bff"></path><g style="opacity: 0.6000000000000001"><path d="M 452.7 444.6 L 416.2 455 l 1.2 0.6 C 418.5 456.2 419.7 456.3 420.9 456 c 3.1 -0.7 11.6 -3 29.6 -9.2 C 451.6 446.5 452.4 445.7 452.7 444.6 Z" style="fill: #ffffff"></path></g><g style="opacity: 0.6000000000000001"><path d="M 409.9 444.4 C 410.8 443.9 411.9 444.2 412.5 445.1 C 413 446 412.7 447.1 411.8 447.6 C 410.9 448.1 409.7 447.8 409.1 446.9 C 408.7 445.9 409.1 444.7 410.1 444.3" style="fill: #ffffff"></path></g><path d="M 436.7 444.8 c 0.2 -0.1 -1 -1.6 -1 -3.7 s 1.2 -3.5 1.1 -3.7 s -0.5 0.2 -0.9 0.8 C 435.3 439.1 435 440.1 434.9 441.1 C 434.9 442.1 435.2 443.1 435.7 443.9 C 436.2 444.6 436.6 444.9 436.7 444.8 Z" style="fill: #263238"></path><path d="M 441.6 444.7 c 0.2 -0.1 -0.3 -1.5 0.1 -3.2 s 1.2 -2.9 1.1 -3 s -1.4 0.9 -1.8 2.9 S 441.4 444.8 441.6 444.7 Z" style="fill: #263238"></path><path d="M 429.7 446.1 c 0.2 -0.1 -0.5 -2.2 -0.2 -4.9 s 1.4 -4.7 1.2 -4.8 s -1.6 1.8 -1.9 4.7 S 429.6 446.2 429.7 446.1 Z" style="fill: #263238"></path><path d="M 420.7 442.1 c 0.2 0 0.4 -1.9 1.3 -4 s 2.3 -3.5 2.2 -3.7 s -1.8 1.1 -2.8 3.4 S 420.5 442.2 420.7 442.1 Z" style="fill: #263238"></path><path d="M 412.1 437.8 c 0.2 0 0.1 -2.1 1.3 -4.3 s 3 -3.2 2.9 -3.4 s -0.6 0.1 -1.3 0.5 C 414.1 431.4 413.4 432.2 412.8 433.2 C 412.3 434.2 412 435.3 411.9 436.5 C 411.9 437.3 412.1 437.9 412.1 437.8 Z" style="fill: #263238"></path><path d="M 411.8 432.8 s -0.3 -0.3 -1.1 -0.6 C 409.7 431.8 408.5 431.6 407.4 431.6 C 406.6 431.6 405.8 431.8 405.1 432.3 C 404.6 432.6 404.5 433.2 404.6 433.7 C 404.9 434.2 405.2 434.6 405.7 434.9 C 407.8 435.7 410.2 435 411.5 433.2 C 412.7 431.3 412.6 428.9 411.3 427.1 C 411 426.6 410.5 426.3 410 426.3 C 409.4 426.3 408.9 426.7 408.7 427.2 C 408.5 428 408.5 428.8 408.7 429.6 C 409 430.7 409.4 431.8 410 432.7 c 0.4 0.7 0.7 1 0.8 1 C 410.1 432.4 409.5 431 409.2 429.6 C 409.1 428.9 409.1 428.1 409.2 427.5 C 409.3 427.2 409.6 427 409.9 427 C 410.3 427 410.6 427.2 410.8 427.5 C 411.8 429.1 411.8 431.2 410.8 432.8 C 409.7 434.4 407.7 435 405.9 434.3 C 405.6 434.2 405.3 433.9 405.1 433.6 C 405 433.3 405.1 432.9 405.4 432.7 C 406 432.3 406.7 432.1 407.4 432.2 C 408.9 432.1 410.4 432.3 411.8 432.8 Z" style="fill: #263238"></path><path d="M 405.7 423.1 s -67.6 -40.9 -76.7 -46 c -7.9 -4.4 -32.6 -14 -41.4 9.8 s 38.3 58.8 38.3 58.8 l 39.9 1.8 l 13.3 -5.1 L 394.4 447 Z" style="fill: #263238"></path><path d="M 358.2 448.3 L 327.9 460 l -21.3 16.2 C 305.9 476.7 305 477 304.1 476.8 C 303.1 476.6 302.3 476.1 301.8 475.3 h 0 C 301.2 474.5 301.1 473.3 301.5 472.4 c 2.5 -6.4 11.8 -29.9 14.1 -30.6 c 2.6 -0.9 31.1 -14.5 31.1 -14.5 Z" style="fill: #407bff"></path><g style="opacity: 0.6000000000000001"><path d="M 301.8 475.3 l 15.8 -34.5 l -1.3 0.5 C 315.2 441.8 314.3 442.6 313.8 443.7 c -1.4 2.8 -5.3 10.7 -12.3 28.5 C 301.1 473.2 301.2 474.4 301.8 475.3 Z" style="fill: #ffffff"></path></g><g style="opacity: 0.6000000000000001"><path d="M 329.8 443 C 329.6 444 328.6 444.7 327.6 444.5 C 326.6 444.3 325.9 443.3 326.1 442.3 C 326.4 441.3 327.4 440.6 328.5 440.7 C 329.5 441.1 330.1 442.1 329.8 443.2" style="fill: #ffffff"></path></g><path d="M 312.1 463 c 0 0.2 1.8 0.2 3.4 1.7 s 1.9 3.2 2.1 3.2 s 0.2 -0.5 0 -1.2 C 317 464.7 315.4 463.2 313.4 462.9 C 312.6 462.8 312.1 462.9 312.1 463 Z" style="fill: #263238"></path><path d="M 309 466.8 c -0.1 0.2 1.3 0.8 2.4 2.1 s 1.4 2.8 1.6 2.8 s 0.2 -1.7 -1 -3.2 S 309 466.6 309 466.8 Z" style="fill: #263238"></path><path d="M 315.6 456.9 c -0.1 0.2 2 1.1 3.9 3 s 2.7 4.1 2.9 4 s -0.3 -2.4 -2.4 -4.5 S 315.6 456.7 315.6 456.9 Z" style="fill: #263238"></path><path d="M 324.5 452.6 c -0.1 0.1 1.2 1.5 2.2 3.6 s 1.2 4.1 1.4 4 s 0.3 -2.1 -0.7 -4.3 S 324.6 452.4 324.5 452.6 Z" style="fill: #263238"></path><path d="M 333.3 448.9 c -0.1 0.2 1.6 1.4 2.4 3.7 s 0.4 4.4 0.6 4.4 s 0.3 -0.5 0.4 -1.3 C 336.9 454.6 336.8 453.5 336.4 452.4 C 336 451.4 335.4 450.4 334.5 449.6 C 333.9 449.1 333.4 448.9 333.3 448.9 Z" style="fill: #263238"></path><path d="M 337.4 451.9 C 337.8 451.9 338.2 451.7 338.5 451.5 C 339.5 451 340.4 450.2 341.1 449.4 C 341.7 448.8 342.1 448 342.2 447.2 C 342.2 446.6 341.9 446.1 341.3 445.9 C 340.8 445.7 340.3 445.8 339.8 446 C 337.8 447 336.7 449.3 337.3 451.5 C 338 453.6 339.8 455.1 342 455.3 C 342.6 455.4 343.1 455.2 343.5 454.8 C 343.9 454.4 343.9 453.7 343.6 453.3 C 343.2 452.6 342.5 452.1 341.8 451.7 C 340.8 451.2 339.7 450.8 338.6 450.6 C 338.2 450.5 337.8 450.5 337.4 450.6 C 338.8 450.9 340.2 451.5 341.5 452.2 C 342.2 452.5 342.7 453 343.1 453.6 C 343.3 453.8 343.2 454.2 343 454.4 C 342.8 454.6 342.4 454.7 342 454.7 C 340.2 454.4 338.6 453.1 338 451.3 C 337.5 449.5 338.4 447.5 340 446.6 C 340.4 446.5 340.8 446.4 341.1 446.5 C 341.4 446.6 341.6 446.9 341.6 447.2 C 341.5 447.9 341.2 448.6 340.8 449.1 C 339.8 450.2 338.7 451.2 337.4 451.9 Z" style="fill: #263238"></path><path d="M 345 455.8 c 0.9 -0.4 35.1 -14.4 35.1 -14.4 l -34 -16.8 L 325.6 435.2 Z" style="fill: #263238"></path><path d="M 302.8 414.6 l 0.5 0.1 l 1.4 0.4 l 5.2 1.8 l 19 6.7 l 62.6 22.1 l 3 0.9 l -0.3 0.1 L 405.5 423 l 0.1 0.3 l -39.4 -24.1 l -11.3 -7 l -3 -1.9 l -0.8 -0.5 c -0.2 -0.1 -0.3 -0.2 -0.3 -0.2 l 0.3 0.1 l 0.8 0.5 l 3.1 1.8 l 11.4 6.9 l 39.5 23.9 l 0.2 0.1 l -0.1 0.2 L 394.6 447.1 l -0.1 0.2 l -0.2 -0.1 l -3 -0.9 c -1.6 -0.4 -3.1 -1 -4.6 -1.6 l -4.5 -1.6 L 373.4 440 l -16.6 -5.9 l -28.1 -10 l -18.9 -6.8 l -5.1 -1.9 l -1.3 -0.5 C 303 414.8 302.9 414.7 302.8 414.6 Z" style="fill: #455a64"></path><path d="M 345 455.8 C 344.6 455.4 344.1 455 343.7 454.6 l -3.3 -3.4 c -2.8 -2.9 -6.6 -7 -10.8 -11.4 l -4.2 -4.5 l -0.2 -0.3 l 0.3 -0.1 l 10.4 -5 l 3 -1.4 C 339.2 428.2 339.5 428 339.9 427.9 C 339.6 428.1 339.3 428.4 338.9 428.5 L 336 430 l -10.3 5.2 l 0.1 -0.4 l 4.3 4.5 c 4.2 4.5 8 8.6 10.7 11.6 l 3.2 3.5 C 344.3 454.8 344.7 455.3 345 455.8 Z" style="fill: #455a64"></path><path d="M 414 389.5 c 0.1 0.1 -8.4 3.8 -18.8 8.2 s -18.9 7.8 -19 7.7 s 8.4 -3.8 18.8 -8.2 S 414 389.4 414 389.5 Z" style="fill: #455a64"></path><path d="M 362 286.4 c -0.7 0 -25.4 -0.2 -30.4 4.8 s -15.3 81.3 -15.3 81.3 c 5.3 1 8.8 3 12 4.6 l 41.9 24.4 l 18.1 -9.4 C 389.6 391.4 390.4 390.2 390.7 388.9 C 390.9 387.5 390.6 386.2 389.7 385.1 h 0 l 24.1 -87.3 C 410.3 295.1 406.3 293 402.1 291.4 C 395 288.8 362 286.4 362 286.4 Z" style="fill: #455a64"></path><path d="M 405.7 294.6 s 7.4 1.6 10.3 6.2 c 6.7 10.7 27.1 48.8 30.6 58 c 3.6 9.7 -0.3 15.2 -2.9 19.3 c -2.8 4.4 -18.4 4.4 -25.4 -3.1 c -3 -3.2 -19.9 -18.5 -19.9 -18.5 Z" style="fill: #455a64"></path><path d="M 414.1 308.7 C 414.1 309 414 309.2 413.9 309.4 l -0.9 2.1 c -0.8 1.9 -1.8 4.5 -3 7.9 c -2.4 6.7 -5.4 16.1 -8.5 26.6 s -5.9 19.9 -7.9 26.8 c -1 3.4 -1.9 6.2 -2.5 8.1 l -0.7 2.2 C 390.3 383.4 390.2 383.6 390.1 383.9 C 390.1 383.6 390.2 383.4 390.2 383.1 q 0.2 -0.8 0.6 -2.2 c 0.6 -2 1.3 -4.7 2.3 -8.1 c 1.9 -6.9 4.6 -16.4 7.8 -26.8 s 6.2 -19.9 8.7 -26.6 c 1.3 -3.4 2.4 -6 3.2 -7.9 l 1 -2.1 C 413.9 309.2 414 308.9 414.1 308.7 Z" style="fill: #263238"></path><path d="M 332.8 290.3 s -7.8 4.4 -10.6 7 S 289.9 341.9 286.1 355 c -2.2 7.6 6.2 23.3 15.2 22.5 c 11.8 -1 55.9 -17.9 55.9 -17.9 L 347.3 338 l -25 4 l 18.1 -18.2 l -6.8 -33.9" style="fill: #455a64"></path><path d="M 437.6 354.3 C 437.4 354.2 437.3 354.1 437.1 354 l -1.2 -0.8 L 431.5 350 c -3.7 -2.7 -8.8 -6.5 -14.5 -10.7 l -3.8 -2.8 l 0.4 -0.1 c -3.6 4.7 -6.8 8.8 -9.1 11.7 C 403.3 349.8 402 351.3 400.6 352.6 l 3.6 -4.7 l 9 -11.8 l 0.1 -0.2 l 0.2 0.1 l 3.8 2.8 c 5.6 4.2 10.7 8 14.4 10.8 L 436 353 l 1.2 0.9 C 437.3 354 437.4 354.1 437.6 354.3 Z" style="fill: #263238"></path><polygon points="367.7,330.4 347.9,339.2 355.8,356.4 368.1,348.2 367.7,330.4" style="fill: #b2655f"></polygon><path d="M 386.4 332.1 l 13.3 -9 C 400.1 322.7 400.7 322.6 401.2 322.6 l 17.3 1.5 C 419.2 324.2 419.8 324.8 419.8 325.5 C 419.8 326.2 419.5 326.8 419 327.3 L 390.9 346.9 l -21 -3.3 Z" style="fill: #e0e0e0"></path><path d="M 367.7 330.4 s 7.1 -5.3 8.8 -5.6 s 9.2 -0.3 9.2 -0.3 l 6.4 3.6 l -3.9 2.7 c -2.7 -0.6 -3.5 -1.7 -3.5 -1.7 l -4.4 0.3 Z" style="fill: #b2655f"></path><path d="M 375.7 328.1 L 387 332 l 16.2 2.3 C 403.3 336.2 401.9 337.8 400 337.9 c -2 0.2 -5.4 0.4 -5.4 0.4 s -0.8 3 -3.4 3.6 C 390.7 343.2 389.8 344.2 388.8 344.9 C 388.7 345 388.5 345.1 388.3 345.1 c -1.6 0.4 -4.7 4.7 -6.8 5.3 s -13.4 -2.1 -13.4 -2.1 l -0.5 -17.9 Z" style="fill: #b2655f"></path><path d="M 379 337.3 c 0 -0.1 0.9 0.2 2.3 0.5 C 383.2 338.1 385.1 338.4 387 338.5 C 388.9 338.6 390.8 338.6 392.7 338.5 c 1.5 -0.1 2.4 -0.2 2.4 -0.2 C 394.9 338.4 394.7 338.5 394.5 338.5 c -0.4 0.1 -1 0.2 -1.7 0.3 C 390.8 338.9 388.9 339 387 338.8 C 385.1 338.7 383.2 338.4 381.3 338 c -0.7 -0.2 -1.3 -0.3 -1.7 -0.5 C 379.4 337.5 379.2 337.4 379 337.3 Z" style="fill: #8e4842"></path><path d="M 381.2 341.9 C 381.3 342.3 381.2 342.7 381.1 343 C 381 343.5 380.8 343.8 380.5 344.1 C 380.1 344.5 379.6 344.7 379 344.6 C 378.5 344.6 378 344.4 377.6 344.2 c -0.4 -0.2 -0.8 -0.4 -1.1 -0.6 c -0.6 -0.4 -1 -0.5 -1 -0.5 C 375.9 343.1 376.3 343.2 376.6 343.4 C 377.3 343.9 378.1 344.2 379 344.3 C 379.5 344.4 379.9 344.2 380.3 343.9 C 380.5 343.7 380.7 343.3 380.9 343 C 381 342.6 381.1 342.3 381.2 341.9 Z" style="fill: #8e4842"></path><path d="M 389.6 343 C 389.2 343.2 388.8 343.3 388.3 343.3 C 387.3 343.5 386.3 343.6 385.3 343.7 C 384.3 343.7 383.3 343.7 382.3 343.7 C 381.8 343.7 381.4 343.7 381 343.6 c 0 -0.1 1.9 0 4.3 -0.2 S 389.6 342.9 389.6 343 Z" style="fill: #8e4842"></path><path d="M 381 347.7 C 379.9 348.6 378.4 348.8 377.1 348.3 c 0 -0.1 0.9 0.1 2 -0.1 S 381 347.6 381 347.7 Z" style="fill: #8e4842"></path><path d="M 385.1 347.5 c 0 0.1 -0.5 0.2 -1.2 0.3 C 383.4 347.9 383 347.9 382.6 347.8 C 383 347.6 383.4 347.5 383.8 347.5 C 384.5 347.4 385.1 347.4 385.1 347.5 Z" style="fill: #8e4842"></path><path d="M 387 332 C 385.2 331.6 383.4 331 381.7 330.2 c -1.4 -0.6 -2.7 -1.1 -3.6 -1.5 C 377.5 328.5 377.1 328.3 376.6 328 C 377.1 328.1 377.6 328.3 378.1 328.5 l 3.7 1.4 l 3.7 1.4 C 386.4 331.7 387 331.9 387 332 Z" style="fill: #8e4842"></path><path d="M 403.6 336 s -1.3 -0.4 0.1 -2.4 s 5.1 0.4 5.1 0.4 l 4.8 2.9 s 1.1 2.5 -0.3 3.2 l -1 1.2 s 1.9 1.9 1.1 3.6 C 413 345.9 412 346.4 410.9 346.3 s 0.2 3.4 -0.9 4.7 C 409.5 351.7 408.8 352.2 407.9 352.4 C 407.2 354.2 405.6 355.6 403.7 356 c -3.2 0.8 -4.9 0.9 -5.8 -0.5 C 397.3 354.6 396.8 353.6 396.5 352.5 s -6.9 -3.6 -7.1 -5.5 s 0.2 -2 0.2 -2 C 389.2 344.1 389.3 343.1 389.7 342.3 c 0.7 -1.1 3.5 -0.1 3.5 -0.1 l 8.9 2.1 s -7.1 -3.3 -7.9 -4.4 s 0.1 -2.4 2.9 -2.1 s 11.5 1.9 11.5 1.9 C 408.2 339.2 407.9 338.8 407.5 338.6 c -0.6 -0.2 -2.4 -1.3 -2.4 -1.3 Z" style="fill: #b2655f"></path><path d="M 405.7 349.5 c 0 0.1 -3.6 -0.8 -8 -2.1 s -8 -2.3 -7.9 -2.4 s 3.6 0.8 8 2.1 S 405.7 349.4 405.7 349.5 Z" style="fill: #8e4842"></path><path d="M 401.5 354.3 C 400.6 354.2 399.7 354 398.9 353.6 C 398.3 353.4 397.7 353.2 397.1 353 C 396.9 352.9 396.8 352.8 396.6 352.7 C 396.6 352.6 396.5 352.6 396.5 352.6 s 0 -0.1 0 -0.1 s 1.1 0.4 2.5 0.8 C 399.8 353.6 400.7 353.9 401.5 354.3 Z" style="fill: #8e4842"></path><path d="M 409.1 345.6 c 0 0.1 -1.8 -0.3 -3.9 -0.6 s -3.9 -0.6 -3.9 -0.7 C 402.6 344.3 403.9 344.4 405.2 344.6 C 406.6 344.8 407.8 345.1 409.1 345.6 Z" style="fill: #8e4842"></path><path d="M 411.3 341 c -0.1 0.1 -0.8 -0.4 -1.7 -0.8 s -1.8 -0.4 -1.8 -0.5 C 408.3 339.6 409 339.7 409.6 339.9 C 410.3 340.1 410.8 340.5 411.3 341 Z" style="fill: #8e4842"></path><path d="M 419 325.7 l -0.3 0 l -0.9 -0.1 c -0.8 -0.1 -2 -0.3 -3.4 -0.4 c -2.9 -0.3 -6.9 -0.7 -11.3 -0.8 C 402.1 324.3 401 324.4 400 324.8 C 399.6 325 399.2 325.3 398.8 325.6 l -1.2 0.9 l -4.1 2.9 l -2.8 1.9 l -0.8 0.5 c -0.2 0.1 -0.3 0.2 -0.3 0.2 C 389.6 331.9 389.7 331.9 389.8 331.8 l 0.7 -0.6 l 2.8 -2 l 4.1 -3 l 1.2 -0.9 C 399 325.1 399.4 324.8 399.9 324.5 C 400.4 324.3 400.9 324.1 401.5 324.1 c 0.6 0 1.1 0 1.6 0 C 406.9 324.2 410.6 324.5 414.4 325 c 1.4 0.2 2.6 0.4 3.4 0.5 l 0.9 0.2 C 418.8 325.7 418.9 325.7 419 325.7 Z" style="fill: #263238"></path><path d="M 408.1 327.3 C 408 327 407.6 326.9 407.3 326.9 h 0 l -0.1 0 h 0 C 406.9 327 406.7 327.1 406.5 327.3 C 406.3 327.6 406.3 328 406.5 328.2 C 406.6 328.4 406.8 328.4 407 328.5 C 407.3 328.5 407.7 328.4 408 328.2 C 408.2 328 408.3 327.6 408.1 327.3 Z" style="fill: #ffffff"></path><path d="M 368.8 231.1 l -1.9 -1 C 366 229.5 365 229.3 363.9 229.4 c -0.9 0.3 -1.6 1.2 -2.6 1.3 c -1.1 0.1 -2.1 -0.9 -3.2 -0.8 s -1.9 1 -3 1 c -0.8 0 -1.6 -0.6 -2.3 -0.2 c -0.1 0.1 -0.3 0.2 -0.4 0.3 C 351.5 231.4 350.5 231.3 349.7 230.8 C 348.9 230.3 348 230.2 347.1 230.3 C 346.5 230.6 346.1 231 345.7 231.5 C 345.3 231.9 344.7 232.2 344.1 232.1 c -0.3 -0.1 -0.6 -0.3 -0.9 -0.4 c -1 -0.3 -1.9 0.8 -2.9 1.1 s -2.1 -0.2 -3 0.2 C 336.5 233.5 336.2 234.3 336.5 235 C 336.8 235.7 337.4 236.2 338.2 236.3 C 339 236.4 339.8 236.4 340.6 236.1 C 341.2 235.9 341.8 235.7 342.4 235.7 c 1.5 0.1 2.7 1.6 4.1 1.3 C 347.2 236.7 347.9 236.3 348.4 235.8 C 349.2 235.2 350.2 234.9 351.3 234.9 C 352 235 352.6 234.9 353.3 234.8 c 0.8 -0.3 1.2 -1.2 2.1 -1.4 s 1.8 0.3 2.7 0.2 c 0.6 -0.1 1.1 -0.4 1.7 -0.4 c 0.9 -0.1 1.6 0.5 2.5 0.4 s 1.6 -0.8 2.5 -0.7 C 365.1 233 365.4 233.1 365.7 233.2 C 366.1 233.3 366.4 233.3 366.7 233 c 0.2 -0.2 0.3 -0.5 0.5 -0.6 C 367.4 232.4 367.6 232.3 367.8 232.4 l 2.8 0.3 Z" style="fill: #263238"></path><path d="M 371.8 231 c -0.9 -0.7 -2.2 -1.4 -3.3 -0.8 c -0.4 0.2 -0.7 0.6 -1.1 0.8 c -0.9 0.4 -2 -0.1 -2.9 0.1 c -0.8 0.2 -1.4 1 -2.1 1.3 c -1.2 0.6 -3 0.3 -3.7 1.3 c -0.4 0.6 -0.5 1.5 -1.2 1.7 C 357.2 235.4 357 235.4 356.7 235.3 C 355.9 235.1 355 235 354.1 235.2 C 353.6 235.3 353.1 235.5 352.7 235.8 c -0.7 0.7 -0.7 1.8 -1.4 2.4 c -1 1 -2.9 0.5 -4.2 1.2 C 346.5 239.8 346 240.2 345.5 240.7 C 344.4 241.5 343.3 242.2 342.1 242.8 C 340.9 243.4 339.8 244.2 339.1 245.3 C 338.4 246.4 338.5 247.9 339.5 248.8 C 339.9 249.2 340.6 249.2 341.1 248.8 c 0.1 -0.1 0.3 -0.3 0.4 -0.5 C 341.9 248.1 342.3 247.9 342.7 247.8 c 0.4 -0.2 0.8 -0.5 0.8 -0.9 c 0 -0.3 -0.1 -0.6 0.1 -0.8 C 343.7 246.1 343.8 246 343.9 246 c 1.1 -0.1 2.4 -0.1 2.9 -0.9 C 347 244.7 347.2 244.3 347.3 243.8 C 347.6 243.1 348.2 242.6 349 242.4 c 0.6 -0.2 1.4 -0.1 1.9 -0.4 s 0.6 -1.3 1.1 -1.8 c 0.9 -0.8 2.6 -0.2 3.4 -1.1 c 0.2 -0.2 0.3 -0.5 0.6 -0.7 c 0.7 -0.5 1.6 0.5 2.4 0.3 s 1 -1 1.5 -1.5 C 360.8 236.7 361.6 236.3 362.5 236 c 1.1 -0.5 1.8 -1.5 2.9 -1.8 c 1 -0.3 2.1 -0.1 2.9 -0.8 c 0.3 -0.3 0.5 -0.6 0.8 -0.8 C 369.3 232.6 369.5 232.6 369.7 232.7 C 370.8 232.8 371.9 232.6 372.9 232 Z" style="fill: #263238"></path><path d="M 370.2 233.5 C 367.7 233.1 365.2 233.9 363.4 235.5 C 363 235.9 362.6 236.3 362.1 236.5 C 361.3 236.8 360.5 236.9 359.6 236.8 C 357.7 237 356.1 238.3 355.5 240.2 c -0.4 1.2 -0.5 2.7 -1.6 3.1 C 353.7 243.3 353.5 243.3 353.3 243.4 c -0.7 0.5 -0.2 1.6 -0.2 2.6 c 0 1.5 -1.7 2.5 -1.7 4 C 351.3 250.5 351.4 251.1 351.7 251.6 q 0.9 2.2 1.9 4.2 c 0.3 0.6 0.7 1.3 1.4 1.4 c 1 0.1 1.5 -1 1.8 -2 C 357.1 254.5 357.1 253.8 356.8 253.1 c -0.3 -0.5 -0.9 -0.8 -1.1 -1.4 c -0.4 -0.9 0.2 -1.8 0.7 -2.7 C 357.3 247.3 357.6 245.4 357.2 243.5 c 1 -0.2 1.5 -1.6 2.6 -1.8 C 360.1 241.7 360.4 241.6 360.6 241.6 c 0.7 -0.3 0.8 -1.3 1.4 -1.8 s 2 -0.1 2.3 -0.9 c 0.1 -0.3 0.1 -0.6 0.2 -0.8 C 364.7 237.9 364.9 237.8 365.1 237.8 l 2.5 -0.6 C 368.1 237.1 368.6 236.9 369 236.6 c 0.6 -0.6 0.8 -1.8 1.6 -2.1 Z" style="fill: #263238"></path><path d="M 372.9 228.5 c -0.1 -1.5 -0.4 -3.3 -1.7 -3.9 c -0.8 -0.4 -1.7 -0.2 -2.5 -0.6 c -1.5 -0.7 -1.6 -3.1 -3 -3.8 s -3.3 0.4 -4.5 -0.7 c -0.6 -0.6 -0.7 -1.5 -1.1 -2.2 C 359.4 216.7 358.5 216.3 357.5 216.3 C 356.6 216.3 355.6 216.2 354.7 215.9 c -1.5 -0.7 -2.5 -2.5 -4.1 -2.7 c -1.4 -0.1 -2.4 1.1 -3.3 2.2 C 347.1 215.7 346.9 216 346.8 216.4 C 346.8 217 347.2 217.6 347.7 217.9 c 1.1 0.6 2.5 0.5 3.5 1.3 C 351.6 219.5 351.9 219.8 352.3 220.1 c 0.6 0.3 1.3 0.2 1.9 0.6 c 1.1 0.7 1.1 2.5 2.2 3.2 s 2.4 -0.1 3.5 0.2 c 1.6 0.4 2.5 2.6 4.1 2.7 C 364.7 226.5 365.4 226.4 366.1 226.2 C 367.1 226.1 368 226.7 368.4 227.5 c 0.3 0.6 0.3 1.2 0.6 1.8 C 369.4 229.9 370.1 230.4 370.9 230.5 C 371.7 230.5 372.4 230.5 373.2 230.3 Z" style="fill: #263238"></path><path d="M 371.6 233.1 c -1 -1.9 -2.2 -3.9 -4.3 -4.8 C 366.3 228 365.2 227.7 364.2 227.2 c -0.8 -0.5 -1.4 -1.3 -2.2 -1.8 c -1.8 -1.3 -4.3 -1.2 -6.5 -0.8 s -4.5 0.9 -6.6 0.4 c -1.9 -0.5 -3.6 -1.8 -5.6 -1.9 C 342.2 223.1 341.1 223.2 340.1 223.6 l -3.6 1 C 336.1 224.7 335.7 224.9 335.5 225.2 c -0.4 0.7 0.4 1.4 1.1 1.7 C 337.7 227.4 339 227.5 340.3 227.3 C 341.3 227 342.3 226.8 343.3 226.9 C 344 227 344.6 227.3 345.3 227.5 C 346.2 227.7 347 227.7 347.9 227.5 l 4 -0.4 C 352.9 226.9 354 227 354.9 227.3 c 0.7 0.3 1.3 1 2.1 1.1 s 1.7 -0.6 2.6 -0.4 c 1.1 0.2 1.6 1.3 2.6 1.8 c 1.1 0.5 2.6 -0.1 3.7 0.5 c 0.8 0.4 1.1 1.3 1.6 1.9 C 367.9 232.8 368.4 233.3 369 233.7 C 369.9 234.1 370.7 234.4 371.6 234.6 Z" style="fill: #263238"></path><path d="M 373.7 224.7 c -0.5 -0.7 -1.2 -1.3 -1 -2.1 c 0.1 -0.4 0.4 -0.7 0.5 -1.1 c 0.1 -0.7 -0.6 -1.3 -0.9 -2 s 0 -1.8 -0.5 -2.5 s -1.5 -0.9 -2.4 -1.1 C 368.5 215.7 367.7 215 367.3 214.1 C 367.1 213.4 367.1 212.8 367.1 212.1 C 366.8 210.3 365.3 209 363.5 209 C 363 209 362.5 209 362 208.8 c -0.9 -0.4 -1 -1.5 -1.5 -2.3 C 359.8 205.4 358.5 204.8 357.2 205 c -0.6 0.1 -1.3 0.8 -0.9 1.3 c 0.1 0.2 0.4 0.3 0.6 0.4 c 0.7 0.6 0.2 1.8 0.6 2.5 s 1.7 1 2.1 1.8 c 0.3 0.7 -0.1 1.5 0.2 2.1 c 0.4 0.8 1.4 1 2.3 1 s 1.9 0.2 2.3 1 C 364.4 215.6 364.5 215.9 364.5 216.3 C 364.6 217 365 217.6 365.6 217.9 c 0.9 0.4 2 0.3 2.6 1.2 s -0.3 2.2 0.3 3.2 c 0.4 0.7 1.3 0.9 1.9 1.3 C 370.5 223.6 370.7 223.7 370.7 223.9 C 370.7 224.1 370.7 224.3 370.6 224.4 c -0.5 1.1 -1.2 2.3 -0.7 3.4 C 370.2 228.3 370.5 228.6 370.8 229 C 371.9 230.1 372.7 231.5 373.1 233 l 0.9 -4.1 C 374.7 227.6 374.6 226 373.7 224.7 Z" style="fill: #263238"></path><path d="M 378.9 211 C 379.3 209.8 378.8 208.5 377.7 207.8 C 377.2 207.6 376.5 207.5 376 207.7 C 375.4 208 374.9 208.4 374.7 209 c -0.4 1.3 0.7 2.9 0 4.1 C 374.5 213.4 374.3 213.7 374.1 214 c -0.3 0.9 0.9 1.6 0.9 2.5 s -1.3 1.6 -1.5 2.6 s 0.8 2.3 0.4 3.4 C 373.7 222.8 373.5 223.1 373.3 223.3 c -1.2 1.7 -0.6 4 0.1 6 l 2.6 -0.4 c -0.5 -1.8 2.1 -3.7 1.2 -5.4 c -0.4 -0.8 -1.6 -1.4 -1.3 -2.3 C 376 221.1 376.2 220.9 376.4 220.7 l 2.5 -2.7 C 379.2 217.7 379.5 217.2 379.6 216.7 c 0.1 -1.2 -1.4 -1.9 -1.5 -3.1 C 378 212.6 378.6 211.8 378.9 211 Z" style="fill: #263238"></path><path d="M 379.8 226 c -0.3 -0.9 -1.4 -1.1 -2.3 -1 c -2.5 0.4 -4.3 2.4 -5.8 4.4 C 369.9 231.4 368.3 233.6 366.9 236 C 366.5 236.5 366.3 237 366.2 237.7 C 366.1 238.3 366.3 238.9 366.8 239.3 C 367 239.4 367.3 239.5 367.6 239.4 C 367.9 239.4 368.2 239.2 368.3 238.9 l 0.7 -0.2 C 371.5 234.7 374.6 231.1 378.4 228.3 C 379.2 227.7 380.1 226.9 379.8 226 Z" style="fill: #407bff"></path><path d="M 366.3 263.6 C 365.6 258.8 365.3 253.9 365.4 249 C 365.5 244 366.8 239.2 369.3 235 c 0.4 -0.6 3.4 -4.8 4.2 -4.6 c 0.5 0.2 -1.7 4.2 -1.5 4.7 c 1.7 4.8 1.3 10.1 0 15 C 370.6 254.8 368.7 259.3 366.3 263.6" style="fill: #263238"></path><path d="M 388.1 295.6 c 0.7 -3.4 1.3 -6.1 1.3 -6.1 s 11.9 1.1 14.9 -10.3 c 1.5 -5.5 3.5 -17.1 5.3 -27.6 C 411.5 240.3 404.4 229.4 393.2 226.6 l -1.1 -0.3 c -12.1 -2.3 -20.8 6.7 -22.7 18.8 l -8.2 42.2 L 380 307.1 Z" style="fill: #b2655f"></path><path d="M 389.4 289.5 C 384.1 288.2 379.3 285.3 375.6 281.3 s 1.5 9.2 13.2 11.1 Z" style="fill: #8e4842"></path><path d="M 403.7 260.7 C 403.5 261.6 402.6 262.1 401.7 261.9 C 401.3 261.8 400.9 261.6 400.7 261.2 C 400.4 260.9 400.3 260.4 400.4 260 C 400.6 259.1 401.5 258.6 402.4 258.8 C 402.8 258.8 403.2 259.1 403.5 259.4 C 403.7 259.8 403.8 260.2 403.7 260.7 Z" style="fill: #263238"></path><path d="M 405.9 255.7 c -0.3 0.2 -1.3 -1.1 -3 -1.5 s -3.3 0.1 -3.4 -0.2 c -0.1 -0.1 0.2 -0.4 0.9 -0.7 C 401.3 253 402.3 253 403.2 253.2 C 404.1 253.4 404.9 253.9 405.6 254.7 C 406 255.2 406.1 255.6 405.9 255.7 Z" style="fill: #263238"></path><path d="M 387.8 257.6 C 387.6 258.5 386.7 259 385.8 258.8 C 385.3 258.8 385 258.5 384.7 258.2 C 384.5 257.8 384.4 257.4 384.5 256.9 C 384.7 256.1 385.6 255.5 386.5 255.7 C 386.9 255.8 387.3 256 387.5 256.4 C 387.8 256.7 387.9 257.2 387.8 257.6 Z" style="fill: #263238"></path><path d="M 388.5 252.1 c -0.3 0.2 -1.3 -1.1 -3 -1.5 s -3.3 0.1 -3.4 -0.2 c -0.1 -0.1 0.2 -0.4 0.9 -0.7 C 383.9 249.4 384.9 249.3 385.8 249.6 C 386.7 249.8 387.5 250.3 388.1 251 C 388.6 251.6 388.6 252 388.5 252.1 Z" style="fill: #263238"></path><path d="M 391.4 267.2 C 392.4 267.1 393.4 267.2 394.4 267.4 c 0.5 0.1 0.9 0.1 1.1 -0.2 C 395.6 266.7 395.6 266.2 395.5 265.8 c -0.1 -1.2 -0.3 -2.4 -0.5 -3.8 c -0.6 -5.3 -0.9 -9.7 -0.7 -9.7 s 0.9 4.3 1.5 9.6 c 0.1 1.3 0.3 2.6 0.4 3.8 C 396.4 266.3 396.3 267 396 267.5 C 395.8 267.8 395.5 268 395.1 268 C 394.8 268 394.6 268 394.3 267.9 C 393.3 267.8 392.4 267.5 391.4 267.2 Z" style="fill: #263238"></path><path d="M 386 267.1 c 0.3 0.1 -0.2 2 1.1 3.7 s 3.4 2.1 3.3 2.3 s -0.5 0.3 -1.4 0.1 C 387.9 273 386.9 272.3 386.2 271.4 C 385.6 270.5 385.3 269.4 385.4 268.3 C 385.5 267.5 385.8 267.1 386 267.1 Z" style="fill: #263238"></path><path d="M 390.2 244.9 c -0.3 0.4 -2 -0.2 -4.1 -0.5 s -3.9 -0.1 -4.1 -0.6 c -0.1 -0.2 0.3 -0.6 1.1 -0.9 C 385.2 242.2 387.5 242.5 389.4 243.8 C 390.1 244.3 390.4 244.7 390.2 244.9 Z" style="fill: #263238"></path><path d="M 406.7 249.7 c -0.4 0.3 -1.5 -0.4 -3 -0.8 s -2.8 -0.4 -2.9 -0.9 c -0.1 -0.2 0.2 -0.6 0.9 -0.8 C 403.3 246.6 405.2 247.2 406.4 248.5 C 406.8 249.1 406.9 249.5 406.7 249.7 Z" style="fill: #263238"></path><path d="M 368.2 253.9 c -0.2 -0.1 -7.3 -4.3 -9 3.6 s 6.6 8 6.6 7.8 S 368.2 253.9 368.2 253.9 Z" style="fill: #b2655f"></path><path d="M 364.1 261.7 s -0.2 0.1 -0.4 0.1 C 363.3 261.9 362.9 261.8 362.6 261.6 c -0.8 -0.5 -1.2 -2 -0.9 -3.4 C 361.9 257.6 362.1 256.9 362.5 256.4 C 362.8 255.9 363.3 255.6 363.8 255.5 C 364.2 255.5 364.5 255.7 364.5 256.1 c 0.1 0.2 0 0.4 0 0.4 s 0.2 -0.1 0.2 -0.4 C 364.7 255.9 364.7 255.7 364.5 255.5 C 364.4 255.3 364.1 255.2 363.8 255.1 C 363.1 255.1 362.5 255.5 362.1 256 C 361.6 256.6 361.3 257.4 361.1 258.1 c -0.3 1.6 0.2 3.3 1.3 3.9 C 362.8 262.2 363.3 262.2 363.7 262 C 364 261.9 364.1 261.7 364.1 261.7 Z" style="fill: #8e4842"></path><path d="M 407.2 237.4 c 1.4 -0.4 -1.6 -5.4 -4.4 -7.5 c -4.3 -3.1 -11.3 -6 -15.9 -5.7 c -5.6 0.4 -10.5 2.1 -14.1 6.3 C 369.2 235 366.8 240.2 365.9 245.8 C 365.5 247.5 365.5 249.2 366 250.9 c 0.7 2 2.6 3.5 2 5.9 C 367.8 257.6 367.9 258.6 368.4 259.3 c 1.1 1.8 3.2 0.8 4.3 -0.5 c 2.4 -2.7 3.3 -6.4 4.2 -9.9 C 377.7 246.5 378 243.9 378 241.3 c -0.1 -1.4 -0.5 -2.8 -0.5 -4.2 C 377.3 235.7 377.8 234.3 378.8 233.3 C 379.1 233.1 379.3 232.9 379.6 232.8 C 382.3 231.3 385.5 231.4 388.1 232.9 c 4.1 2.5 11.2 6.4 13.5 5.3 c 3.3 -1.6 4.3 -2.8 4.3 -2.8 Z" style="fill: #263238"></path><path d="M 323.1 371.9 C 323.3 371.8 323.5 371.7 323.8 371.7 l 1.9 -0.7 l 7.1 -2.6 l 24.4 -9 l -0.1 0.3 c -2 -4.4 -4.2 -9.2 -6.5 -14.2 l -3.4 -7.4 l 0.3 0.1 L 322.9 342 h 0 C 318.4 343.3 314.1 345.1 310.2 347.6 c -1.4 0.9 -2.4 1.6 -3.2 2.1 l -0.8 0.6 C 306.2 350.3 306.1 350.4 305.9 350.4 l 0.3 -0.2 l 0.8 -0.6 c 0.7 -0.5 1.7 -1.3 3.1 -2.2 C 314 344.8 318.3 342.9 322.7 341.6 h 0 l 24.5 -3.8 l 0.2 0 l 0.1 0.2 c 1.1 2.4 2.2 4.9 3.4 7.4 c 2.3 5 4.5 9.8 6.5 14.2 l 0.1 0.2 l -0.3 0.1 l -24.5 8.8 l -7.1 2.5 l -1.9 0.6 Z" style="fill: #263238"></path><path d="M 337.8 327 C 337.2 327.9 336.5 328.7 335.8 329.5 c -1.3 1.5 -3.1 3.5 -5.2 5.6 s -4 4.1 -5.4 5.4 C 324.5 341 323.9 341.5 323.3 342 c -0.3 0.1 -0.4 0.3 -0.6 0.2 C 322.6 342.1 322.6 342.1 322.7 342 s 0 -0.1 0 -0.1 s 0 0.1 0.1 0.1 C 322.9 342 323.1 341.9 323.2 341.8 c 0.4 -0.3 1 -0.9 1.7 -1.6 c 1.4 -1.4 3.3 -3.3 5.3 -5.5 l 5.3 -5.5 C 336.2 328.4 337 327.7 337.8 327 Z" style="fill: #263238"></path><path d="M 342.5 317.1 c -0.1 0 0.2 -1.6 0.2 -4.1 C 342.7 311.5 342.6 310.1 342.3 308.6 C 341.7 305 340.4 301.6 338.5 298.6 C 337.7 297.3 336.8 296.1 335.8 295 c -1.7 -1.9 -3 -2.8 -2.9 -2.9 C 333.2 292.3 333.5 292.5 333.8 292.8 C 334.2 293 334.5 293.3 334.8 293.6 C 335.3 294 335.7 294.4 336.1 294.8 C 337.1 295.9 338.1 297.1 338.9 298.3 C 339.9 299.9 340.7 301.5 341.4 303.2 C 342.1 304.9 342.5 306.7 342.8 308.5 C 343.1 310 343.1 311.5 343.1 313 C 343.1 313.6 343 314.2 343 314.7 C 342.9 315.2 342.9 315.6 342.8 316 C 342.7 316.4 342.6 316.8 342.5 317.1 Z" style="fill: #263238"></path><path d="M 368 391.7 c 0 -0.1 1.3 0 3.3 0 C 376.6 391.6 381.7 390 386.2 387.3 c 1.7 -1 2.7 -1.8 2.8 -1.8 s -0.2 0.3 -0.6 0.6 C 387.7 386.7 387.1 387.2 386.4 387.6 C 384.2 389.1 381.7 390.2 379.2 391 C 376.6 391.7 374 392.1 371.3 392.1 C 370.5 392.1 369.7 392 368.9 391.9 C 368.6 391.9 368.3 391.8 368 391.7 Z" style="fill: #263238"></path><path d="M 382.9 369.6 C 382.7 369.9 382.5 370.2 382.2 370.5 c -0.4 0.5 -1.1 1.3 -2 2.2 c -1.7 1.8 -4.2 4.2 -7 6.8 s -5.5 4.7 -7.5 6.2 c -1 0.8 -1.8 1.4 -2.4 1.7 C 363 387.6 362.7 387.8 362.4 387.9 C 362.6 387.7 362.9 387.4 363.2 387.2 l 2.3 -1.9 c 1.9 -1.6 4.6 -3.8 7.4 -6.3 s 5.3 -4.9 7.1 -6.6 l 2.1 -2.1 C 382.6 369.8 382.9 369.6 382.9 369.6 Z" style="fill: #263238"></path></g></svg>